<svg width="1440" height="421" viewBox="0 0 1440 421" xmlns="http://www.w3.org/2000/svg"><title>Illustration</title><g fill="#000" fill-rule="evenodd"><path d="M342.797 288.042c-3.108-1.49-3.267-2.824-1.61-5.256.172-.247.313-.53.436-.797 2.566-5.718 1.017-11.654-3.236-14.402-5.26-3.395-10.718-4.19-16.686-2.656-.492.13-1.58-.388-1.735-.842-.508-1.473-.803-3.046-1.025-4.604-.813-5.59-9.72-10.26-15.41-6.79-2.17 1.33-4.007 3.18-6.113 4.628-.623.43-1.88.695-2.425.36-3.137-1.933-6.687-3.06-9.583-.745-2.215 1.764-3.48 4.895-4.724 7.628-.746 1.62-.94 2.923-3.255 3.2-4.757.56-6.86 4.078-5.558 8.43.106.35.067.74.094 1.115-.39-.08-.797-.106-1.155-.253-3.438-1.374-6.792-3.06-10.335-4.005-1.45-.394-5.562-1.58-5.024 1.263.543 2.847.865 4.862 1.677 6.044.234.34 9.196 16.497 9.352 16.756 4.57 7.307 9.14 14.61 13.7 21.93.795 1.252 5.34 6.256 6.447 6.066 1.104-.18 1.82-2.108 1.778-3.223-.045-1.256-1.098-2.543-1.913-3.677-2.235-3.107-14.743-20.78-17-23.874-.303-.425-.276-1.092-.405-1.646.535.358 1.2.61 1.582 1.092 3.242 4.114 17.783 24.974 24.368 32.573.992 1.15 5.03 1.864 5.7 1.106.67-.758.057-1.898-.322-2.63-.614-1.183-1.47-2.27-2.404-3.234-2.728-2.794-5.946-5.208-8.227-8.32-3.97-5.417-12.97-15.524-16.6-21.192-.395-.61-.708-1.275-1.066-1.916.195-.075.453-.27.56-.21.88.535 1.855.98 2.57 1.69 1.53 1.503 25.47 15.81 33.318 18.996 1.158.475 3.778.746 4.22-.424.44-1.173-.758-2.466-1.534-3.353-.812-.923-2.052-1.552-3.207-2.072-4.412-1.987-8.985-3.66-13.283-5.857-4.53-2.312-8.778-5.178-13.233-7.653-4.763-2.652-10.292-5.984-16.925-11.31-.617-.493-.53-1.774.277-1.612 6.41 1.33 16.75 5.404 23.16 6.74 4.09.844 14.305 2.78 18.44 3.322 1.475.196 4.315-.622 4.426-1.314.265-1.675-.752-3.142-3.15-3.45-7.625-.992-21.35-3.23-28.946-4.423.006-.05-2.373-.493-3.562-.727-.222-.04-.604-.482-.574-.54.67-1.114 1.257-2.32 2.133-3.258.645-.69 1.966-1.64 2.483-1.4 1.75.828 2.54 2.59 5.51 1.787 2.528-.682 1.71-1.452 1.604-2.68-.153-1.767-.908-3.695-.427-5.25.656-2.13 1.203-6.092 3.41-5.95 2.2.14 3.217 2.968 4.116 4.793 1.51 3.1 6.35-.166 6.492-.857 1.044-4.934 5.135-8.404 10.22-8.335.82.018 2.01.848 2.347 1.606 1.808 4.057 2.35 8.216.638 12.54-.246.623.86 2.524 1.237 2.497 1.567-.124 3.465-.32 4.587-1.27 4.56-3.843 9.448-3.924 14.652-1.897.715.277 1.416.9 1.855 1.546 2.852 4.156.584 11.68-4.16 14.34-.815.464-1.498 1.41-1.883 2.286-.135.304.71 1.426 1.272 1.59 1.78.512 3.637 1 5.472 1.047 4.304.093 8.654 2.87 8.675 5.8.05 5.52-7.06 13.394-12.63 14.023-.445.05-.968.375-1.24.733-2.336 3.125.982 3.783 2.435 4.71 4.894 3.118 7.132 9.44 4.292 13.057-2.343 2.995-6.615 3.407-10.898 1.338-1.144-.544-3.226-.88-4.023-.38-.8.504-.412 2.76.015 3.905 1.27 3.36-.192 8.57-3.164 9.92-3.857 1.745-4.85-.622-6.182-3.728-.67-1.576-4.308-3.167-5.4-3.278-1.085-.1-.622 3.74-.616 5.607.012 2.214 1.152 4.746.388 6.55-.8 1.91-3.29 4.387-4.975 4.34-2.175-.058-4.26-2.42-6.43-3.724-.952-.574-2.255-1.57-2.965-1.287-.848.346-1.627 1.81-1.74 2.854-.3 2.72-2.017 4.472-4.676 3.825-4.63-1.116-7.995-4.072-9.758-8.405-.442-1.085-.9-4.017 1.498-4.333.845-.108 1.85.274 2.148-1.73.3-2.002-4.982-3.382-5.487-4.185-2.56-4.09-.797-11.208 3.12-13.89.724-.493 1.62-1.94 1.386-2.367-.5-.905-1.634-1.876-2.615-2.01-3.218-.447-5.186 1.514-6.115 4.31-1.48 4.466-3.077 8.848-.746 13.743.968 2.045.616 4.88.358 7.308-.575 5.47 3.372 8.122 6.473 11.436 3.492 3.717 13.35 5.798 17.19 3.605 1.048-.592 2.68-.87 3.797-.51 6.94 2.224 12.697-.283 15.787-6.995.233-.524 1.196-1.04 1.78-1.005 7.12.5 12.53-3.587 14.11-10.567.166-.752 1.207-1.53 2.022-1.885 3.026-1.296 6.38-2.018 9.147-3.71 3.883-2.374 5.75-6.966 4.37-10.102-1.233-2.797-3.177-5.28-4.635-7.99-.352-.65-.4-1.955.024-2.454 1.7-2.022 3.723-3.778 5.48-5.757 7.038-7.905 5.817-15.294-3.643-19.84M5.508 86.717c-1.51-2.31-3.15-.03-4.623.98-1.053.728-2.133 1.55-3.327 1.93-4.822 1.535-9.593-.155-13.025-3.902-2.424-2.656-2.873-5.052-.64-7.978 1.175-1.55 2.28-3.23 3.013-5.016.394-.95.277-2.507-.29-3.304-.37-.51-2.047-.376-3.02-.11-4.15 1.13-8.415-.025-10.22-4.05-1.263-2.832-1.826-6.573-1.092-9.508.677-2.742 8.438-3.858 11.557-3.232 1.346.27 4.05-.875 4.57-2.46.518-1.585-.246-2.32-.938-3.02-2.966-3.018-6.48-5.56-9.16-8.798-5.047-6.084-2.926-12.056 4.45-13.54 4.863-.985 10.374 2.922 12.564 8.59.48 1.245.9 3.037 2.855 3.194 1.965.165 3.075-3.224 3.075-4.84 0-4.028 2.31-7.48 4.93-8.644.487-.21 1.9-.112 2.596.327 4.083 2.61 5.587 7.025 4.89 11.906-.235 1.634.54 4.614 1.56 4.972 2.004.71 3.105-1.17 4.22-3.197 1.08-1.95 3.725-3.654 5.963-4.123 1.305-.277 3.724 1.756 4.67 3.332 2.387 3.982.47 7.623-1.68 11.187-.545.9-.587 2.632-.05 3.486.432.692 2.06.896 3.16.863 1.832-.055 2.954-1.847 6.38-.882 3.41.962 3.12 2.397 3.453 3.933.313 1.442-.698 3.938-1.934 4.74-2.096 1.38-4.89 1.67-7.27 2.704-1.336.586-3.408 1.756-3.414 2.673-.02 2.478 1.714 4.18 4.4 3.287 3.294-1.098 6.66-2.294 9.605-4.1 4.124-2.52 5.14-6.993 4.66-11.387-.425-3.825-2.885-6.92-6.91-7.623-3.712-.652-3.95-2.586-3.748-5.786.418-6.642-5.965-15.904-13.714-12.705-2.766 1.152-4.123.454-5.24-2.396-.805-2.036-2.46-3.877-4.075-5.45-3.862-3.758-7.382-3.764-11.42-.13-1.442 1.3-2.688 2.85-3.767 4.464-1.17 1.712-1.935 1.447-3.144.043-5.16-5.984-15.594-6.207-21.068-.54-5.592 5.79-5.677 12.674.31 20.85 2.18 2.97 1.194 3.958-1.604 4.91-3.99 1.35-6.028 4.704-6.843 8.364-1.905 8.522 1.163 17.72 13.358 17.86.694.01-1.408 1.527-1.944 3.524-.83 3.098-2.144 6.364.277 9.41 4.447 5.614 9.783 10.11 17.38 9.12 3.42-.445 6.815-2.522 9.715-4.58 1.023-.715 1.36-4.116.553-5.343"/><path d="M14.187 86.224c-3.706-6.12-8.39-11.3-12.34-17.252-.833-1.263-2.472-2.29-3.76-1.856-2.508.845-1.45 2.872-.093 5.004 3.673 5.792 17.573 25.062 23.036 31.007 1.718 1.86 6.194 4.45 8.53 3.413 2.34-1.046.344-9.217.16-10.708-.917-7.482-2.948-15.26-4.936-23.047-1.444-5.657-2.19-7.74-3.177-13.532-.183-1.035-1.922-8.805-3.913-6.625-1.997 2.177-1.45 5.915-.863 8.185 1.893 7.32 7.337 26.184 8.76 33.626.11.592-.012 1.232-.018 1.85-.37-.513-.833-.988-1.086-1.55-4.473-9.98-12.796-27.783-17.374-37.713-.358-.787-1.956-6.227-3.36-4.23-1.41 2.002-1.61 4.57-.77 6.58 3.696 8.86 8.06 17.45 12.143 26.146.226.466.114 1.09.16 1.633-.377-.304-.864-.538-1.098-.932M30.16 155.944c1.004-.84 1.99-1.614 2.932-2.447 3.965-3.486 7.948-6.932 11.837-10.492 1.127-1.03 3.02-2.923 2.724-3.495-1.086-2.138-2.996-3.864-5.733-2.047-5.67 3.76-11.174 7.728-14.122 14.2-.364.81-.794 1.978-.47 2.618.347.696 1.538.96 2.83 1.664M56.22 136.416c2.326-1.645 4.772-3.194 6.793-5.17.95-.92 1.35-2.712 1.405-4.134.02-.686-1.477-2.12-2.027-2.003-1.17.246-2.303 1.15-3.203 2.038-1.444 1.434-2.76 3.02-3.99 4.646-.708.932-1.133 2.078-1.78 3.317.46.623.72 1.294 1.183 1.504.43.202 1.21.085 1.62-.198M117.38 241.227c-5.59-1.988-12.747-1.687-18.61.397-7.896 2.815-11.74 12.705-12.05 23.558-.376 13.505 9.253 22.268 24.47 23.143 5.093-.265 11.714-1.38 16.157-7.013 6.967-8.835 5.523-23.353-.448-32.263-1.45-2.176-4.3-5.01-9.52-7.823zm10.448 30.646c-1.763 7.223-9.91 12.3-17.272 11.91-10.083-.528-18.178-4.786-19.546-14.987-1.474-10.98 4.68-20.075 9.1-22.484 4.424-2.41 12.24-3.29 19.145.67 9.103 5.215 10.898 15.322 8.573 24.89zM185.992 133.34c.617-.13 1.233-1.19 1.435-1.934.1-.358-.67-1.26-1.206-1.425-1.287-.4-2.66-.745-3.994-.694-3.66.13-7.328.764-10.973.67-5.13-.135-10.336-1.55-15.348-.992-9.8 1.086-19.738 1.146-29.316 4.424-7.31 2.49-15.108 3.52-22.544 5.707-13.26 3.89-25.703 9.71-37.495 16.922-4.634 2.835-9.375 5.48-13.98 8.356-.72.448-1.465 1.787-1.288 2.496.217.874 3.213.935 3.778.81 2.825-.603 26.573-13.19 36.9-18.517 6.236-3.214 13.043-5.49 19.805-7.43 5.595-1.603 11.54-1.94 17.263-3.12 3.806-.787 7.46-2.753 11.263-3.018 10.616-.734 21.268-.845 31.907-1.21.042.494 9.26-.095 13.795-1.045M75.768 260.83c2.92.007 3.775-.932 3.793-5.042.016-3.654-.532-5.224-4.075-5.194-2.013.018-3.847 2.192-3.862 5.578-.022 4.2 1.215 4.647 4.145 4.66M76.384 264.045c-2.175.018-4.148 2.102-4.16 5.356-.018 4.043 1.306 4.473 4.46 4.482 3.145.006 4.065-.897 4.083-4.845.012-3.518-.574-5.016-4.383-4.992M1320.285 339.506c-2.063.668-4.12 1.5-6 2.602-2.666 1.566-3.878 2.444-4.576 3.115-2.22 2.105-1.17 4.144-.765 4.246 3.63 1.647 7.027-.35 9.042-1.523 1.558-.902 4.665-3.368 4.87-3.62.97-1.164 1.664-2.382 1.098-3.723-.64-1.546-2.467-1.488-3.67-1.098"/><path d="M1316.077 339.44c1.468-.607 4.26-1.515 5.857-1.648.743-.06 1.516-.018 1.627-.19.536-.817-1.473-4.934-2.036-5.373-.628-.488-1.046-1.417-3.748-.954-1.952.376-3.95.842-4.548.255-.598-.582-4.247-9.594-5.345-11.7-.448-.868-1.387-2.637-.59-3.806.358-.53 4.59-.887 7.24-.776.446-1.077-1.792-3.952-2.697-4.92-1.3-1.383-3.797-1.89-5.683-3.65-2.25-2.09-3.507-4.544-4.148-6.758-.268-.742.29-1.172-.027-1.813-.406-.812-.66-1.335-1.27-1.633-2.35-1.133-4.764-.493-5.91.93-.518.685-.445 1.41-.23 2.14.272.734.86.617 1.012 1.423.833 4.456 2.436 6.222 1.27 11.78.105.558-1.688 4.016.345 9.432 2.01 5.36 6.128 18.475 6.263 18.84.623 1.274 1.69 4.835 3.243 7.315-.463-4.095 5.16-6.967 9.377-8.895M1037.837 242.833c-1.874.604-3.742 1.365-5.457 2.366-2.42 1.425-3.525 2.225-4.166 2.832-2.015 1.92-1.06 3.768-.692 3.86 3.3 1.5 6.386-.31 8.224-1.376 1.417-.82 4.242-3.067 4.43-3.296.883-1.064 1.51-2.168 1-3.39-.584-1.403-2.244-1.35-3.34-.997"/><path d="M1034.008 242.776c1.338-.56 3.877-1.38 5.333-1.5.672-.052 1.37-.016 1.478-.17.48-.745-1.342-4.492-1.86-4.892-.568-.442-.944-1.287-3.398-.863-1.775.34-3.598.765-4.142.23-.542-.536-3.863-8.727-4.86-10.643-.41-.788-1.26-2.396-.534-3.458.322-.485 4.17-.807 6.58-.708.405-.98-1.628-3.6-2.45-4.474-1.182-1.263-3.45-1.714-5.17-3.32-2.046-1.898-3.192-4.135-3.767-6.144-.252-.673.26-1.067-.036-1.654-.363-.736-.59-1.212-1.148-1.482-2.133-1.032-4.337-.45-5.372.842-.475.628-.403 1.284-.21 1.948.246.67.78.566.917 1.294.764 4.056 2.214 5.662 1.155 10.717.102.504-1.53 3.653.313 8.575 1.826 4.875 5.577 16.81 5.7 17.138.562 1.158 1.537 4.394 2.948 6.65-.424-3.724 4.69-6.33 8.525-8.087M709.437 224.892c.5-5.337-3.18-12.257-7.69-13.556-7.657-2.19-17.713.364-19.963 8.164-4.554-3.29-10.73-7.21-13.912-9.938-.96-1.597-1.757-2.59-2.638-4.234-1.176-2.19-2.864-.433-2.145 1.94 2.94 9.773 4.538 19.657 4.198 18.048-2.78-1.11-6.022-1.275-8 1.21-3.836 4.84-1.658 7.745.282 12.1-11.744 2.424-6.016 24.818 3.513 21.772-.53 5.897 1.925 11.19 8.537 12.633 4.223.924 7.003-.787 9.024-3.506.864 5.103 3.508 9.48 9.64 9.62 7.497.177 8.255-7.924 8.38-13.965 5.603 2.248 14.158 2.865 16.606-3.21 2.54-6.312.812-11.698-3.4-15.017 5.304-1.38 8.872-5.098 7.732-12.206-.906-5.597-5.4-9.954-10.165-9.855zm-6.15 18.69c-2.158-.223-2.657 3.476-.512 3.79 5.228.75 9.325 2.618 9.848 8.554.773 8.775-10.236 7.503-14.872 4.49-1.262-.83-2.872.264-2.896 1.66-.063 3.067.136 6.068-.445 9.105-1.066 5.516-8.562 3.195-9.85-1.244-.757-2.604-.505-5.55-.228-8.2.235-2.32-3.07-2.39-3.79-.512-1.29 3.378-2.596 8.09-6.98 8.19-7.317.167-7.365-8.06-5.714-12.848.63-1.825-1.94-3.27-3.222-1.88-6.25 1.312-8.84-.667-7.788-5.935-.102-3.56 1.79-6.642 5.487-6.483 1.197.058 2.256-1.275 1.856-2.438-.182-.636-.41-1.258-.682-1.863-.26-.47-.52-.947-.785-1.416-2.45-2.9-.622-5.015 5.493-6.323.036.027.075.045.11.075 1.183 5.867 2.293 11.752 3.256 17.655.4 2.45 3.192 2.73 2.797.3-1.46-8.952-2.54-20.64-4.42-29.514 6.25 9.18 6.122 9.538 13.155 19.176 1.462 2.002 8.73 11.14 8.838 8.064-5.388-9.68-12.192-18.524-18.443-27.692 7.484 5.36 12.818 9.508 20.55 14.506 3.412 2.207 5.692-.105 3.725-1.573-4.172-3.103-8.365-6.167-12.567-9.223.53-6.318 7.216-7.593 12.543-7.493 3.674.074 10.61 8.256 7.422 11.756-.45.3-.9.64-1.34 1.053-1.626 1.54.453 4.056 2.34 3.03.552-.307.997-.688 1.404-1.1 4.457-2.896 7.447 3.87 8.302 6.52 2.43 7.5-7.902 8.293-12.592 7.812zM1418.908 214.914c-2.717-2.595-5.523-5.283-7.794-5.283-.602 0-1.143.187-1.67.575-.32.24-.484.575-.53 1.065-.15 2.114 2.278 5.936 4.09 7.746 3.53 3.534 6.32 5.885 8.403 5.885.527 0 1.017-.152 1.49-.46.688-.444 1.058-.99 1.118-1.67.1-1.017-.415-3.36-4.92-7.678l-.187-.178"/><path d="M1445.29 178.853c-.366.448-.107 1.004-.57 1.434 0 0-5.17 6.472-11.903 8.38-3.637 1.036-7.42 3.483-10.207 6.09-1.855 1.733-8.735 8.9-12.682 13.452.383-.12.78-.185 1.186-.185 2.914 0 5.823 2.785 8.9 5.735l.19.174c3.2 3.06 4.98 5.68 5.345 7.813 4.388-5.097 12.772-14.795 14.065-16.687 1.74-2.538 2.542-6.354 3.748-9.668.758-2.084 6.097-10.49 6.528-10.84.422-.352.452-.39 1.105-.653.5-.2.716-.864.728-1.436.012-1.133-.894-2.084-1.733-2.83-1.158-1.022-3.55-2.207-4.7-.78M1266.233 319.31c-.806.623-2.148 2.614-2.178 8.85v.253c-.024 3.876-.04 7.894 1.676 9.44.386.345.846.568 1.406.667.397.072.758-.04 1.143-.352 1.638-1.338 2.74-5.73 2.808-8.287.142-5.157-.09-8.88-1.657-10.296-.336-.304-.73-.505-1.208-.622-.804-.193-1.456-.082-1.99.348"/><path d="M1246.87 339.597c2.545.15 12.52.222 18.53-.054-.26-.148-.523-.295-.746-.5-2.25-2.026-2.226-6.206-2.202-10.642v-.246c.015-4.435.692-7.53 1.99-9.256-6.722.322-19.527.915-21.79 1.276-3.043.487-6.364 2.53-9.6 3.933-2.034.88-11.81 2.79-12.355 2.724-.553-.068-.6-.062-1.233-.357-.496-.222-1.122.08-1.54.46-.84.77-.906 2.08-.87 3.206.052 1.545.84 4.092 2.666 3.948.577-.043.8-.614 1.434-.572 0 0 8.26-.703 14.277 2.866 3.25 1.928 7.626 2.983 11.44 3.215M1371.233 320.748c-.3.376-.677.812-1.092 1.287-1.64 1.885-4.117 4.733-3.85 6.66.085.587.437 1.068 1.065 1.48.476.31.963.457 1.492.457 2.085 0 4.87-2.348 8.402-5.885 1.816-1.807 4.246-5.638 4.08-7.746-.032-.486-.198-.826-.52-1.058-.535-.396-1.122-.592-1.798-.592-2.545 0-5.683 2.79-7.78 5.398"/><path d="M1350.643 310.79c1.305 1.905 9.764 11.696 14.134 16.772.45-2.29 2.54-4.724 4.155-6.58.4-.457.758-.875 1.052-1.24 1.444-1.803 5.222-5.995 9.03-5.995.458 0 .897.07 1.32.193-3.945-4.55-10.834-11.716-12.69-13.448-2.788-2.61-6.566-5.064-10.21-6.093-6.722-1.91-11.89-8.382-11.89-8.382-.472-.43-.214-.992-.572-1.437-1.158-1.42-3.55-.243-4.704.786-.843.746-1.745 1.7-1.73 2.84.006.567.226 1.22.725 1.424.653.265.68.307 1.104.653.427.35 5.77 8.756 6.527 10.84 1.204 3.314 2.01 7.127 3.75 9.668M1426.993 351.084l.26-.06c4.454-1.014 7.69-1.05 9.658-.093-1.936-6.58-5.537-18.884-6.403-20.99-1.167-2.856-3.91-5.623-6.022-8.443-1.32-1.784-5.41-10.862-5.47-11.41-.056-.553-.074-.595.067-1.287.105-.53-.33-1.073-.8-1.392-.942-.64-2.232-.406-3.32-.108-1.493.4-3.794 1.74-3.238 3.49.172.55.782.645.882 1.264 0 0 2.575 7.882.466 14.552-1.134 3.6-1.17 8.1-.517 11.87.427 2.504 2.638 12.223 4.27 18.01.774-2.584 3.86-3.793 6.926-4.617 1.047-.278 2.14-.533 3.243-.786zm-8.84-2.44c-.98-4.356-2.455-8.753-2.984-13.197-.02-.17.11-.355.25-.433 3.855-2.135 8.285-3.092 12.668-3.083.24 0 .4.146.45.33.013.01.025.023.03.044 1.406 4.213 2.327 8.61 3.373 12.916.077.343-.164.622-.498.64-4.39.295-8.537 1.27-12.543 3.092-.29.13-.672.04-.747-.307z"/><path d="M1427.61 352.594l-.25.06c-1.09.246-2.17.493-3.194.766-4.326 1.164-6.056 2.48-5.94 4.54.023.4.206.723.597 1.024 1.682 1.293 6.212 1.362 8.718.845 1.57-.323 2.798-.606 3.854-.888 4.335-1.16 6.112-2.436 6.124-4.394.003-.82-.255-1.425-.788-1.855-.79-.635-3.04-1.492-9.12-.1M1254.78 201.566c1.078 0 2.206.04 3.334.078l.265.012c4.562.168 7.694.977 9.35 2.41-.164-6.858-.456-19.677-.745-21.935-.388-3.055-2.325-6.44-3.624-9.715-.82-2.06-2.415-11.89-2.33-12.438.087-.544.08-.592.393-1.22.24-.482-.036-1.123-.406-1.553-.746-.86-2.057-.974-3.185-.968-1.54.003-4.112.71-4.03 2.538.03.575.588.824.528 1.453 0 0 .443 8.272-3.324 14.166-2.027 3.188-3.227 7.53-3.573 11.33-.235 2.536-.617 12.487-.542 18.507 1.418-2.29 4.71-2.664 7.89-2.664zm-4.038-18.085c.027-.168.204-.318.358-.354 4.277-1.065 8.8-.842 13.03.298.235.066.347.246.353.436.006.024.018.036.018.057.265 4.432.02 8.913-.093 13.35-.006.344-.32.552-.64.49-4.32-.855-8.58-.99-12.92-.266-.313.052-.66-.134-.64-.49.177-4.465-.106-9.093.535-13.52z"/><path d="M1258.32 203.262l-.266-.01c-1.11-.04-2.214-.077-3.278-.077-4.482 0-6.492.82-6.916 2.844-.08.387.018.75.313 1.14 1.287 1.68 5.646 2.928 8.203 3.072 1.603.1 2.854.14 3.952.14 4.488 0 6.534-.768 7.05-2.657.218-.787.125-1.446-.275-1.996-.605-.82-2.55-2.23-8.784-2.458M1355.555 388.643c-2.717-2.595-5.523-5.277-7.785-5.277-.608 0-1.152.186-1.676.574-.322.235-.487.568-.523 1.058-.158 2.115 2.275 5.937 4.086 7.747 3.528 3.536 6.314 5.89 8.4 5.89.528 0 1.015-.152 1.493-.46.685-.45 1.055-.998 1.12-1.677.095-1.017-.417-3.36-4.93-7.67l-.185-.185"/><path d="M1386.637 353.363c-1.15-1.022-3.546-2.207-4.7-.782-.357.45-.104 1.006-.57 1.436 0 0-5.168 6.47-11.903 8.38-3.63 1.035-7.415 3.483-10.203 6.09-1.855 1.738-8.738 8.898-12.684 13.45.382-.11.782-.182 1.19-.182 2.91 0 5.818 2.784 8.896 5.734l.19.175c3.2 3.067 4.98 5.68 5.345 7.818 4.584-5.32 12.802-14.842 14.065-16.685 1.74-2.544 2.545-6.36 3.748-9.674.758-2.077 6.104-10.482 6.528-10.834.424-.36.454-.394 1.104-.66.5-.2.72-.856.728-1.427.018-1.14-.885-2.09-1.733-2.837zm-16.237 25.15c-2.828 3.178-5.96 6.113-8.937 9.138-.235.235-.635.172-.798-.098-2.138-3.537-4.996-6.736-9.3-7.284-.425-.045-.7-.523-.358-.863 2.848-2.902 5.585-6.16 8.735-8.733 1.486-1.223 4.987.352 6.197 1.285 2.122 1.65 3.313 3.602 4.535 5.94.072.14.078.27.036.387-.017.08-.047.16-.11.228zM1065.998 251.99c-2.716-2.602-5.516-5.287-7.784-5.287-.602 0-1.147.186-1.676.577-.32.232-.487.575-.523 1.062-.16 2.11 2.274 5.93 4.09 7.75 3.53 3.533 6.31 5.884 8.396 5.884.534 0 1.02-.153 1.5-.463.685-.442 1.05-.995 1.115-1.678.093-1.01-.418-3.353-4.93-7.668l-.187-.177"/><path d="M1097.087 216.71c-1.155-1.03-3.553-2.214-4.705-.788-.358.448-.105 1.01-.57 1.434 0 0-5.17 6.478-11.898 8.387-3.637 1.03-7.418 3.476-10.21 6.09-1.85 1.732-8.735 8.898-12.685 13.45.387-.117.78-.183 1.194-.183 2.905 0 5.814 2.785 8.897 5.73l.19.18c3.2 3.06 4.982 5.68 5.34 7.812 4.585-5.323 12.81-14.843 14.072-16.687 1.74-2.544 2.54-6.354 3.742-9.668.758-2.084 6.106-10.49 6.534-10.84.424-.355.454-.395 1.097-.653.5-.202.725-.863.73-1.435.016-1.134-.886-2.084-1.728-2.83zm-16.244 25.148c-2.827 3.173-5.96 6.108-8.937 9.133-.234.242-.628.18-.797-.098-2.14-3.53-4.997-6.73-9.302-7.277-.418-.05-.7-.524-.358-.87 2.85-2.895 5.586-6.155 8.736-8.726 1.492-1.225 4.987.345 6.2 1.28 2.12 1.648 3.31 3.6 4.532 5.942.08.14.08.27.043.388-.018.075-.054.16-.117.228zM1055.293 106.946c2.427.752 6.25-.986 9.018-2.86.4-.27.888-.574 1.424-.908 2.126-1.317 5.333-3.305 5.646-5.226.093-.584-.096-1.15-.584-1.73-.358-.435-.782-.718-1.284-.875-1.995-.616-5.342.81-9.767 3.143-2.265 1.194-5.716 4.13-6.19 6.195-.112.475-.05.845.186 1.17.395.535.9.893 1.553 1.09"/><path d="M1065.21 105.415c-1.916 1.296-6.762 4.192-10.396 3.068-.445-.14-.845-.334-1.203-.575 2.423 5.506 6.887 14.39 8.144 16.59 1.898 3.318 4.783 6.776 7.956 8.836 5.863 3.807 8.89 11.52 8.89 11.52.32.547-.09 1.01.123 1.54.68 1.702 3.317 1.275 4.722.64 1.03-.466 2.175-1.11 2.49-2.198.16-.547.148-1.24-.27-1.58-.544-.444-.556-.486-.863-.952-.304-.457-2.924-10.068-3.038-12.28-.17-3.526.195-7.408-.722-10.343-.68-2.21-5.875-14.054-8.555-20.195-1.098 2.06-3.817 3.762-5.908 5.06-.512.32-.985.612-1.37.87zm3.153 3.66c1.97 3.78 4.115 7.52 5.83 11.415.72 1.642-2.792 3.696-3.944 4.123-2.08.782-4.694 1.176-6.544-.328-.006-.006-.012-.015-.018-.024-.06-.035-.11-.092-.16-.164-2.207-3.732-4.253-7.57-6.36-11.358-.21-.352.173-.908.59-.722 3.208 1.447 7.27-1.51 9.92-3.15.234-.15.56-.022.685.21zM1118.444 176.104c-4.488 0-6.533.767-7.05 2.653-.217.79-.13 1.446.276 2 .604.817 2.545 2.228 8.783 2.456l.265.01c1.11.04 2.214.08 3.28.08 4.48 0 6.484-.824 6.914-2.847.082-.39-.018-.752-.312-1.14-1.288-1.684-5.647-2.93-8.203-3.076-1.604-.094-2.86-.136-3.953-.136"/><path d="M1123.997 184.91c-1.08 0-2.208-.043-3.342-.082l-.26-.012c-4.43-.156-7.495-.932-9.188-2.282.105 6.72.288 19.537.58 21.807.388 3.057 2.328 6.44 3.625 9.717.818 2.063 2.415 11.89 2.334 12.44-.087.542-.08.59-.394 1.222-.24.48.036 1.118.406 1.554.746.854 2.05.968 3.177.962 1.546-.003 4.12-.7 4.037-2.538-.03-.572-.593-.82-.53-1.447 0 0-.44-8.277 3.32-14.168 2.034-3.19 3.232-7.533 3.578-11.33.237-2.533.616-12.493.54-18.51-1.416 2.294-4.704 2.667-7.883 2.667zm4.512 17.263c-.025.166-.2.313-.36.352-4.27 1.062-8.795.842-13.024-.3-.24-.064-.352-.244-.358-.434l-.018-.053c-.265-4.432-.018-8.913.093-13.352.012-.35.32-.56.647-.487 4.31.854 8.57.987 12.914.262.31-.05.658.132.646.49-.183 4.463.1 9.088-.54 13.523zM1075.21 167.236c-.43-.14-.876-.165-1.358-.072-.806.153-1.35.523-1.67 1.134-.468.9-.88 3.266 1.664 8.964l.1.23c1.585 3.54 3.218 7.21 5.417 7.91.5.16 1.01.166 1.567.03.388-.102.665-.354.888-.787.947-1.898.135-6.355-.857-8.718-1.997-4.757-3.742-8.05-5.75-8.69"/><path d="M1062.9 194.767c2.38-.912 11.5-4.965 16.863-7.69-.294-.024-.598-.048-.887-.14-2.88-.93-4.587-4.746-6.392-8.794l-.105-.228c-1.806-4.048-2.468-7.142-1.993-9.25l-4.313 2.2c.054.395.1.783.16 1.177.35 2.402 1.533 4.555 3.007 6.465.188.23.182.66-.146.788-3.953 1.585-7.94 3.53-12.033 4.703-.164.048-.38-.02-.486-.15-1.344-1.68-2.292-3.395-2.755-5.515-.076-.355-.13-.677-.185-.993-1.22.65-2.147 1.18-2.584 1.462-2.568 1.69-4.75 4.928-7.12 7.536-1.485 1.645-9.613 7.406-10.14 7.57-.528.164-.57.194-1.268.188-.542 0-.993.53-1.216 1.05-.448 1.046.034 2.267.533 3.277.682 1.387 2.45 3.39 4.054 2.502.505-.273.48-.887 1.068-1.115 0 0 7.24-4.04 14.19-3.266 3.753.424 8.184-.42 11.748-1.777M1370.276 202.997c1.58 3.546 3.213 7.208 5.418 7.915.493.156 1.004.165 1.56.024.39-.102.672-.35.882-.785.948-1.896.142-6.353-.85-8.717-1.998-4.754-3.737-8.05-5.752-8.693-.43-.14-.87-.16-1.357-.07-.806.154-1.35.524-1.67 1.13-.47.906-.88 3.27 1.664 8.97l.106.227"/><path d="M1347.475 222.05c3.754.42 8.185-.424 11.75-1.783 2.38-.905 11.5-4.962 16.87-7.683-.308-.03-.6-.054-.895-.147-2.884-.92-4.587-4.74-6.392-8.787l-.1-.23c-1.81-4.046-2.472-7.14-2.002-9.25-1.246.64-2.726 1.39-4.314 2.202.054.388.105.782.165 1.173.352 2.4 1.535 4.56 3.01 6.463.18.234.173.664-.143.787-3.958 1.585-7.944 3.537-12.038 4.713-.166.045-.382-.024-.487-.154-1.346-1.684-2.294-3.398-2.757-5.515-.075-.36-.13-.68-.19-1-1.22.66-2.147 1.18-2.577 1.465-2.57 1.69-4.753 4.926-7.126 7.542-1.48 1.64-9.608 7.407-10.134 7.566-.53.163-.572.193-1.27.187-.54 0-.993.53-1.215 1.05-.447 1.05.034 2.27.533 3.28.683 1.383 2.452 3.383 4.06 2.502.5-.277.47-.89 1.063-1.116 0 0 7.24-4.04 14.19-3.266M1120.273 146.81l-.247-.07c-3.612-1.035-7.354-2.1-9.358-1.04-.53.282-.923.697-1.212 1.292-.17.358-.156.734.03 1.18.85 1.942 4.783 4.188 7.23 4.946 4.778 1.473 8.34 2.258 10.184 1.284.463-.247.83-.608 1.104-1.098.4-.72.472-1.377.207-2.01-.387-.943-1.933-2.774-7.937-4.485"/><path d="M1120.08 117.035c-2.74 2.607-4.936 6.538-6.187 10.15-.833 2.4-3.574 11.95-4.942 17.807.29-.28.61-.523.972-.712 2.572-1.357 6.443-.253 10.543.917l.247.072c4.263 1.21 7.057 2.696 8.375 4.414 1.51-6.556 4.394-19.042 4.653-21.318.352-3.064-.72-6.81-1.2-10.306-.298-2.192.5-12.12.71-12.63.22-.508.225-.56.677-1.088.345-.412.234-1.1-.025-1.612-.517-1.007-1.768-1.425-2.854-1.696-1.498-.367-4.172-.3-4.524 1.498-.112.565.376.94.165 1.54 0 0-1.553 8.137-6.61 12.963zm8.13 13.24c.13.088.194.208.212.33.018.076.024.16 0 .248-1.868 7.605-2.187 7.418-3.637 12.25-.093.32-.475.45-.758.28-3.537-2.122-7.556-3.62-11.62-2.092-.394.148-.863-.135-.722-.6 1.167-3.895 2.066-8.05 3.646-11.798.753-1.774 4.58-2.02 6.09-1.75 2.643.463 4.61 1.633 6.79 3.133zM1121.494 71.564c.024.018.045.036.063.054.313.27.764.394 1.24.388 6.975.91 54.28 1.098 56.96-.247 2.678-1.34 6.053-8.745 6.257-12.934.036-.77-.893-1.314-1.892-1.356-17.937-.746-36.28.276-54.226.363-.635.006-1.342.253-1.634.677-2.144 3.076-7.71 8.59-7.105 12.257-.015.29.09.568.33.794.007 0 .007.004.007.004M117.366 111.108c.015 0 .033-.006.05-.006.007 0 .013 0 .02-.006-.025.006-.05.006-.07.012M112.114 249.5c-1.077 1.593-3.72 9.98-4.413 14.536-.715.084-1.373.27-1.786.64-.938.852-.938 3.113-.288 4.084.49.734 1.398 1.104 2.427 1.197.704.223 1.504.307 2.208.184 1.265-.237 2.393-.46 2.904-1.347.412-.45.87-3.34-.963-4.216.678-3.764 2.468-13.32 2.37-13.832-.206-.98-1.205-1.444-2.456-1.245M493.47 182.915c3.538 6.96 14.108 26.072 17.522 33.115 11.726 24.214 14.587 32.366 26.694 56.36 2.698 5.338 9.824 5.52 13.657 5.332 1.013-.045 1.486-1.615 1.004-2.656-10.41-22.562-21.874-41.745-32.767-64.007-9.34-19.087-18.466-41.078-27.06-60.607-4.64-10.555-9.472-20.78-14.818-30.91-.433-.824-.992-1.152-1.75-1.122l-10.312.404c-.692.03-1.056.493-1.15 1.083-.16.44-.147.98.145 1.573 5.694 11.54 10.694 27.283 16.463 38.894 4.66 9.38 7.972 13.896 12.372 22.54zm-18.388-60.654c.184-.005.34-.005.47-.005 2.544 4.833 3.994 10.044 6.434 14.95 3.218 6.506 7.027 12.954 9.956 19.633-2.454-.043-5.02.436-7.267 1.362-5.44-11.827-9.286-23.104-14.938-34.847.962-.033 4.163-1.043 5.345-1.092zM1159.94 103.882c1.393-.036 2.744-1.886 2.708-3.71-.028-1.84-1.05-2.74-3.06-2.692-1.75.042-2.496 1.208-2.433 3.82.036 1.277 1.474 2.618 2.785 2.582M1104.165 97.64c-.48-.136-1.465.513-1.78 1.07-.443.74-.96 2.318-.765 3.088.186.76 1.585 1.94 2.115 2.012.535.075 1.263-.882 1.585-1.534.37-.752.24-1.726.517-2.54.542-1.613-.827-1.86-1.672-2.097M1099.304 193.874c-.24-.27-.554-.488-.852-.692-.5-.35-1.116-1.03-1.498-.917-.57.16-1.104.815-1.428 1.392-.277.487-.23 1.155-.322 1.75-.1.14.785 1.69 1.432 1.83.776.18 1.738-.04 2.502-.368.584-.254 1.324-.913 1.363-1.445.037-.484-.745-1.052-1.196-1.55M1041.552 135.703c1.068 1.916 1.344 4.06 1.284 6.162-.045 1.94-.58 3.864-.902 5.804-.307 1.842-.51 3.704-.924 5.526-.5 2.16.27 4.005 1.24 5.79.418.774 1.152 1.42 1.85 1.98.752.605 2.01.42 2.49-.406.924-1.58 2.446-4.934 2.386-4.964.096-.322.195-.644.3-.97.13.302.3.59.37.9.166.716.23 1.45.437 2.157.292 1.016.586 2.044 1.056 2.983.21.412.823.75 1.304.85.54.118 1.104-.093 1.32-.784.443-1.423.924-2.833 1.4-4.25.023-.068.075-.13.11-.198.073.08.16.154.2.247.477 1.005.84 2.085 1.446 3.008.845 1.305 2.7 1.61 3.372.58.566-.857 1.074-1.9 1.152-2.896.298-3.87-.728-7.322-3.26-10.404-1.793-2.18-3.983-3.873-6.134-5.618-1.41-1.133-3.173-1.82-4.635-2.898-1.222-.894-2.232-2.07-3.333-3.122-.488-.463-3.09-2.288-3.336-2.454-.698-.457-.8.23-.722.37.487.88 1.038 1.726 1.528 2.607M1057.832 219.052c.288.536.54 1.104.72 1.687.37 1.172.877 2.348.97 3.55.117 1.552-.292 3.092-1.086 4.466-.53.927-.923 3.335-.054 2.373 1.417-1.565 1.934-1.73 3.408-3.228.382-.39 7.286-2.63 11.852-9.238 1.42-2.008 1.88-4.27 2.184-6.582.183-1.375-.512-2.31-1.652-2.938-.956-.523-1.937-.58-2.818.147-.506.42-1.456 1.775-1.922 2.238-.064.073-.15.124-.223.184l-.053-.196c-.235-.9 1.04-4.216-1.34-5.966-1.202-.88-2.053-1.293-3.076-.388-.465.418-.84 1.047-1.016 1.645-.24.84-.56 2.923-.676 3.798-.013.102-.013.436-.298.084-.86-1.288-1.435-3.026-3.28-3.155-2.168-.16-3.79.764-4.857 2.59-.7 1.187-.966 2.555-.307 3.8.56 1.047 1.462 1.886 2.157 2.86.51.722.95 1.49 1.37 2.267M1110.467 236.924c-1.318-.433-1.318.19-1.892.517-1.682.966-2.47 2.86-1.652 4.566.364.74 1.462 1.45 2.3 1.55 1.123.134 3.1-2.245 2.94-3.577-.16-1.333-.376-2.62-1.696-3.056M1132.916 162.052c-1.017.37-2.15 1.573-2.404 2.607-.388 1.59 1.083 2.155 2.446 2.19 1.056.028 2.172-.152 2.232-1.027 0-2.66-1.005-4.234-2.274-3.77M1102 158.467c-1.71.488-3.015 4.177-1.5 4.84 1.054.46 2.052-.618 3.045-1.02 1.245-.506 1.18-1.6.833-2.563-.364-1.028-1.06-1.632-2.38-1.257M1033.024 176.152c.923-.063 3.044-.357 3.056-1.948.006-1.59-1.687-2.403-2.584-2.755-1.06-.42-2.5 1.19-2.187 2.495.204.875 1.176 2.25 1.714 2.207M757.7 31.536c-3.59-1.176-5.957-.123-8.306 3.296-1.294 1.88-2.485 3.84-3.36 5.948-.942 2.25-2.07 4.64-2.73 7.08 2.793 3.493 6.998 1.19 9.883 1.108 2.875 9.244 13.368 8.745 20.458 4.08 3.143 3.402 6.99 3.408 10.756 1.14.104-.056.15-.135.227-.204 2.274-1.57 1.95-5.864 1.005-8.047-.734-1.693-3.002-6.09-6.377-5.503-2.882.505-4.994 2.19-6.296 4.75-.723 1.424-.982 3.138-.612 4.924-5.472 5.15-14.384 5.69-17.004-1.122 10.323 2.73 17.497-3.4 15.265-11.32-1.84-6.524-4.308-5.075-6.152-5.778-2.587-1.597-3.986.56-6.76-.352zm17.485 16.04c.295-1.804 1.61-3.29 3.26-3.948-.192 1.762.1 3.512.64 5.193.377 1.165 2.05 3.113 2.898 4.26-2.996 1.09-4.77-.575-6.3-2.016-.092-.093-.176-.21-.246-.334-.036-.153-.093-.288-.177-.417-.26-.84-.193-2.003-.075-2.737zM1157.53 26.313c3.262-.085 6.38-1.14 9.642-1.206 2.478-.05 2.484-2.884 0-2.836-3.267.076-6.392.106-9.64.184-2.48.057-2.486 3.916 0 3.858M1170.986 15.75c1.158 2.206 3.667.994 2.515-1.2-1.41-2.68-3.038-5.694-5.37-7.588-.81-.665-1.927-.8-2.724 0-.683.685-.818 2.06 0 2.724 2.09 1.696 4.317 3.66 5.58 6.065M1183.036 9.527c-.006 2.484 2.503 2.59 2.51.105.01-2.355.598-4.863.086-7.178-.532-2.424-4.253-1.392-3.718 1.028.43 1.946 1.128 4.066 1.122 6.045M1201.01 10.026c1.99-2.502 5.378-3.76 6.918-6.62 1.176-2.19-2.157-4.134-3.33-1.945-1.363 2.546-3.625 4.83-5.402 7.062-.644.82-1.13 1.293-.322 2.096.68.683 2.135-.592 2.135-.592M1211.86 21.155c3.296-.493 6.35-1.915 9.64-2.408 2.455-.37 1.41-4.08-1.022-3.717-3.29.493-5.81 2.06-8.925 3.464-2.262 1.022-2.12 3.025.306 2.66M1209.474 35.322c1.357.956 4.506 3.236 7.12 4.17 2.35.834 3.348-2.89 1.023-3.72-2.268-.808-5-1.256-7.138-2.354-2.203-1.14-2.357.954-1.006 1.904"/><path d="M1180.157 79.025c-21.567 0-43.135-.045-64.697-.127-24.83-.096-50.033.857-74.814-.91-.222-.013-.418.01-.604.056-.608.112-1.122.53-1.252 1.357-1.17 7.368-3.98 14.733-6.064 21.863-3.958 13.52-8.06 27-12.29 40.437-7.62 24.222-17.29 47.428-23.437 72.102-1.64 6.57-3.267 13.132-5.21 19.615-1.387 4.66-5.782 12.152-4.868 17.07 1.122 5.99 12.012 6.254 16.91 7.216 26.816 5.275 53.822 9.752 80.84 13.845 13.714 2.078 27.133 3.66 41.027 3.684.8 0 1.71-.584 1.855-1.417 6.03-33.638 16.816-66.743 25.765-99.71 8.47-31.206 19.065-61.776 28.693-92.64.376-1.198-.634-2.44-1.856-2.44zm-22.978 67.345c-7.792 23.774-13.402 48.397-19.875 72.54-2.822 10.55-5.583 21.126-8.68 31.6-1.07 3.618-1.945 7.172-2.673 10.895-.623 3.206-1.21 6.42-1.793 9.632-.022.123-.046.222-.064.322-1.27-.004-2.54-.016-3.808-.035-24.67-.336-49.426-5.698-73.662-9.815-17.684-3.007-35.826-5.428-53.2-9.978-4.792-1.257-1.056-7.36.012-10.648 1.757-5.44 3.426-10.868 4.855-16.398 3.552-13.727 6.398-27.753 11.373-41.062 6.693-17.902 13.013-35.755 18.647-54.07 4.73-15.37 11.163-31.468 13.93-47.415 24.27 1.613 48.924.717 73.217.81 20.686.082 41.38.124 62.065.13-6.632 21.212-13.425 42.37-20.346 63.49z"/><path d="M1229.65 171.392c.844-2.962 2.577-10.278 2.577-10.278 0-.003-.71-7.02-1.516-9.92-1.356-4.918-2.6-9.873-3.77-14.844-1.674-7.148-3.172-14.33-4.87-21.477-1.198-5.058-6.035-36.323-7.12-46.942-.29-2.87-1.605-6.058-.76-8.527 1.198-3.524.518-6.342-.74-9.367-.417-.98-.845-2.55-1.54-2.73-1.537-.39-5.64-.852-10.738-1.306 2.06-9.102 7.057-24.07-4.377-28.847-5.577-2.334-13.06-.88-17.368 3.145-5.346 4.995-7.806 15.255-10.1 21.91-.023.063-.03.13-.047.193-.397.47-.78.95-1.16 1.435-9.76-.35-19.54-.237-29.308-.418-5.427-.1-38.73.692-45.642.776-16.29.198-42.636-.87-43.818-.776-7.614.587-15.374-.782-22.955.08-1.573.18-3.853 1.53-4.322 2.867-2.587 7.332-4.747 14.807-6.985 22.256-1.122 3.747-2.02 7.57-3.13 11.322-1.283 4.282-2.86 8.483-4.005 12.792-1.408 5.323-2.39 10.754-3.835 16.064-7.373-18.85-30.605-27.632-50.72-24.62-21.808 3.267-32.447 28.873-43.475 45.29-7.41 11.03-15.528 22.182-26.4 30.058-4.045 2.938-8.548 4.83-13.252 5.915 7.008-14.53 10.964-32.443 7.102-48.396-1.573-6.507-6.08-13.72-13.525-13.66-4.563.035-7.754 3.622-9.153 7.922-5.592-6.823-14.833-12.14-20.458-6.886-4.053 3.783-4.958 12.134-3.66 20.028-2.26-.674-4.652-.98-6.992-.85-8.652.474-9.4 9.87-8.57 16.586 2.755 22.394 27.713 31.377 48.276 30.21-.265.463-.523.926-.794 1.377-10.462 17.64-26.986 30.593-45.244 39.446-11.01 5.337-22.943 9.373-35.153 10.636-15.275-.295-30.408-3.383-41.324-14.455.68-.68 1.14-1.492.793-2.066-1.38-2.32-2.714-5.145-4.154-7.496 16.982-7.298 30.61-25.883 38.47-38.27 10.346-16.298 21.572-42.764 5.98-57.96-11.13-11.603-26.26-23.286-41.657-33.83.226-.402.48-.766.683-1.205 1.14-2.443 1.627-7.34.29-9.72-.218-.382-.377-.794-.52-1.227-.074-.11-.152-.22-.197-.376-1.854-6.474 1.584-14.127 4.992-19.663 1.504-2.445 4.407-7.254 7.7-7.678 1.96-.246 6.465 2.538 7.5-.788.316-1.034.234-1.996.01-3.03-.016-.052 0-.094-.007-.145-.31-1.744 1.293-5.753 1.624-6.508.82-1.91 2.258-5.112.616-7.048-2.873-3.395-8.074-1.81-11.21.48-1.11.807-1.746 2.978-.735 4.1.648.718 1 1.07 1.932 1.344 1.742.518 1.047.912.764 2.76-.364 2.404-2.912 4.03-5.47 5.33-.14-.135-.293-.265-.486-.37-7.05-3.82-14.454-5.175-22.42-5.15-3.537.01-7.026.435-10.57.27-4.683-.217-4.764-4.947-7.583-7.344-3.507-2.977-9.626-.773-12.492 1.91-3.6 3.37-3.953 9.292-3.07 14.148-2.907.94-7.377 2.23-9.65 4.748-4.93-2.637-7.885-4.13-7.973-4.17-27.29-11.888-49.56 14.022-61.55 30.167-.894 1.208-.813.868-1.75 2.312-16.025-13.68-43.032-3.958-55.136 10.72-15.404 18.684-15.762 40.918-5.21 61.517 16.803 32.82 44.375 59.207 65.284 89.254 8.9 12.8 16.827 27.194 17.104 43.14.322 18.555-12.246 34.294-24.73 46.648-3.826 3.786-7.932 7.29-12.086 10.717-4.563-8.716-13.918-25.267-16.878-31.417-4.795-7.136-51.655-106.735-52.26-108.01-15.21-31.882-27.646-61.947-38.722-94.668 1.45-1.19 1.675-5.425 1.37-8.11-.254-2.214-1.794-4.845-3.01-6.73-.84-1.287-7.89-16.852-10.356-22.376-2.91-6.5-8.327-18.294-13.597-18.697-5.276-.4-28.212 9.7-42.377 15.8-1.387-3.85-2.768-7.696-4.176-11.536-.88-2.426-4.485-3.437-5.87-.77-2.017 3.87-3.885 7.816-5.74 11.776-.524-2.186-1.5-4.222-2.792-6.12-.118-.417-.37-.8-.767-1.07-2.422-3.17-5.67-5.91-9.042-8.158-10.723-7.16-25.926-3.735-35.052 4.75-10.068 9.366-16.713 23.878-21.92 36.352-2.097 5.022-3.76 10.227-5.776 15.276-.5 1.245-1.08 2.803-1.768 4.447-.112.166-.193.358-.24.58-1.686 3.943-3.96 8.237-7.11 10.02-2.397-8.215-6.65-15.59-13.905-21.16-12.428-9.54-25.988-8.487-37.52 1.88-10.11 9.092-9.082 23.882-4.57 35.55 1.062 2.733 2.427 5.163 4.043 7.3.1.8.61 1.312 1.24 1.522 5.05 5.768 12.2 9.046 20.478 9.674 2.62.2 5.394.08 8.05-.358-2.526 17.81-13.067 34.134-23.435 48.337-12.144 16.633-27.196 35.247-44.91 48.75-.317-1.216-.636-2.428-.945-3.643-1.61-6.32-3.403-12.615-4.53-19.03-1.604-9.132-2.54-18.388-4.02-27.55-1.25-7.714-3-15.355-4.3-23.065-.57-3.395-.624-6.87 2.68-9.334 1.615-1.203 3.23-2.484 4.56-3.982 2.902-3.264 5.628-6.696 8.42-10.06 4-4.845 2.36-10.784-3.592-12.74-2.332-.763-4.723-1.385-7.115-1.896-4.8-1.04-9.598-1.152-10.582-8.165-.315-2.262-3.57-5.522-5.696-7.994-2.545-2.953-6.35-5.028-9.924-6.847-9.71-4.972-19.757-10.186-34.123-14.874-3.294-1.068-5.944-1.726-6.898-6.406-.882-4.354-5.716-5.403-9.536-5.286-1.82.05-3.97 2.8-5.18 4.802-1.017 1.687-1.504 3.167-3.866 3.203-11.18.17-22.356.627-33.543.663-6.45.022-12.6 1.62-17.254 5.645-.152.132-.67.44-.844.222-1.6-1.94-3.474-1.97-7.82-2.237-3.884-.24-11.946 1.61-12.833 5.25-.482 2.003-1.402 2.343-3.144 1.27-5.698-3.5-10.932-3.284-16.073 1.037-1.09.91-1.67 2.974-1.675 4.5-.006 3.036.445 6.097.905 9.116.535 3.522-.707 3.09-3.432 2.713-4.33-.6-8.032-1.006-13.353 1.608-1.98.968-9.478 8.275-6.73 14.154.067.136 2.73 3.53 3.385 4.583-9.376-3.35-11.948.286-14.815 2.76-3.167 2.713-6.515 5.8-5.07 10.607.967 3.23 2.826 6.18 4.117 9.325.318.8.176 1.946-.12 2.803-.85 2.472-2.637 4.874-2.67 7.32-.054 3.532 2.45 5.824 5.992 6.816 4.518 1.263 8.636.782 11.915-2.772.37-.403.187-1.96-.225-1.997-2.097-.18-9.4.7-10.375-1.51-.97-2.2-.057-4.14.94-4.71 5.007-2.865 2.285-5.932-.504-8.732-5.505-5.54-3.333-8.392 2.45-13.28.37-.318.675-.712 1.003-1.076 2.187-2.373 6.44-1.58 7.626 1.47 1.25 3.217 3.826 3.353 6.293 1.873 2.003-1.206 1.21-3.578-.67-6.69-.976-1.61-.834-3.642-1.746-5.28-.452-.822-.84-2.226-.452-2.89 2.824-4.803 10.973-8.21 16.286-6.812.746.193 1.317 1.39 1.786 2.232.54.938 2.268 4.252 5.815 3.31 1.09-.285 1.504-2.724 1.4-4.116-.44-6.25-1.37-12.473-1.668-18.728-.072-1.31 1.48-3.19 2.79-3.913.77-.424 2.87.593 3.735 1.546 1.453 1.592 2.68 3.528 3.462 5.53 1.173 3.02 3.712 3.456 6.145 3.297 2.836-.186 2.132-2.742 2.072-4.64-.223-6.65 1.405-8.64 7.385-9.01 6.034-.375 10.49 3.13 10.934 9.212.23 3.105 4.573 5.502 7.804 2.633 4.395-3.897 7.243-6.348 13.308-.575 2.725 2.602 4.798 4.953 7.812 4.577 3.008-.382 4.367-2.29 5.6-3.756 4.07-4.82 5.887-4.78 10.85-1.032 2.392 1.813 3.914 3.993 8.1 4.123 1.136.043 3.01-1.2 4.138-2.303.56-.55.53-2.213.13-3.076-.36-.793-1.833-1.88-2.374-1.674-4.305 1.65-6.684-1.462-9.506-3.53-1.146-.84-2.286-1.684-3.423-2.526 1.59.03 3.206-.124 4.767.114 8.32 1.26 16.71 2.23 24.9 4.068 6.146 1.38 16.322 4.776 22.438 6.457 14.956 4.11 19.757 8.626 23.09 11.038 2.91 2.105 2.042 3.603-.746 2.28-1.96-.927-4.074-1.79-6.255-2.572-.075.076-26.835-6.636-43.404-5.533-7.413.493-16.874-1.04-24.298-.598-5.177.297-16.622.55-21.288 2.255-14.03 5.127-27.524 10.796-39.938 18.58-10.047 6.31-18.388 15.284-27.776 22.72-6.582 5.212-9.277 11.542-7.933 19.775 1.17 7.136 1.098 7.142-6.187 8.835-.64.148-1.285.26-1.907.445-4.425 1.35-6.588 4.505-5.953 9.082.334 2.412.94 4.82 1.714 7.136 1.49 4.41 4.284 6.143 9.003 5.792 1.908-.142 4.904-1.2 5.493-.412 1.116 1.503.863 4.03 1.173 6.125.03.166.054.322.073.487 2.385 22.707 7.447 45.83 12.994 68.013 3.6 14.39 5.03 28.315 8.45 42.764.82 3.5 4.687 24.503 4.945 31.687.24 6.494.436 9.92.966 16.385.112 1.34 3.842 4.652 4.89 4.453 1.924-.37 4.61-1.957 5.122-3.61 1.456-4.714 1.056-7.555 1.27-12.478.363-8.24.598-14.825.568-23.095-.006-.262 31.226 6.13 53.99 2.252 4.462-.763 8.85-1.903 13.255-2.926 2.17-.51 4.067-1.198 5.712 1.412 1.793 2.842 5.358 3.112 7.602 1.245 1.205-1.01 1.187-2.815 1.743-4.153.295-.728 1.628-1.465 1.805-.67 1.558 7.24 2.497 15.206 4.193 22.406.245.986 1.43 3.154 3.975 2.754 2.545-.403 2.656-1.368 2.897-2.54.586-2.81-1.823-16.194-2.698-25.697 5.023-1.61 14.423-4.8 17.702-5.996 8.465-3.11 17.056-5.956 25.34-9.505 3.766-1.615 11.416-5.93 14.992-7.92 3.62-2.003 5.123-3.278 5.123-3.278s11.14 14.106 13.555 17.26c1.098 1.435 4.148 3.925 5.598 4.746 2.876 1.615 6.13.806 7.82-1.69.795-1.17-.24-4.207-1.286-5.873-4.933-7.918-10.252-15.607-15.182-23.537-1.636-2.613-3.113-4.08-3.17-7.17-.067-3.123-2.963-26.318-3.32-30.107 14.37-8.78 26.91-20.25 37.87-34.095 20.533-25.935 46.685-57.11 49.985-91.58 10.94-4.906 17.4-11.894 22.32-21.25 3.444 8.057 7.144 16.05 11.58 23.555 1.905 3.233 4.173 8.76 7.885 10.802 1.787.98 2.786 1.985 6.702 2.484 6.91 16.1 9.448 22.293 16.093 38.495 3.866 9.428 8.254 25.468 12.045 34.92 18.09 45.064 37.73 90.325 57.147 134.89.024.055.06.094.087.142v.012c7.513 22.234 14.507 47.103 20.685 60.088.85 1.786 3.192 4.757 5.355 4.965 2.632.252 3.892-.142 5.92-2.05 1.588-1.487 2.235-4.037 1.41-7.426-4.166-17.207-7.077-29.783-12.224-46.5 2.912-.21 5.808-.556 8.642-.898 12.57-1.514 24.898-4.617 36.87-8.692 5.336 12.11 9.53 20.274 15.094 32.068 2.133 4.51 7.57 3.612 9.82 2.415.88-.47 3.175-2.25 2.026-7.054-1.934-8.06-3.486-13.144-6.1-21.026 4.295.728 8.864-.084 13.124-1.52 4.572-1.553 12.234-4.46 13.3-9.787.227-1.133.21-2.237.013-3.29 5.364-2.877 10.466-6.254 15.793-9.19 5.2 8.875 9.295 16.585 16.304 23.95 2.773 2.913 5.595 2.396 7.896 1.082 2.833-1.615 2.54-5.356 1.552-7.707-3.926-9.343-7.04-16.158-11.828-25.15.196-.116.388-.234.578-.387 24.98-20.462 47.94-47.656 37.64-81.778-4.458-14.795-13.807-27.903-23.018-40.073-12.956-17.118-26.82-33.516-39.54-50.82-11.77-16.01-28.677-37.04-23.876-58.416 3.267-14.55 12.192-28.724 26.967-33.352 7.713-2.42 18.58-3.53 26.477 5.308-9.394 17.297-16.42 41.582-2.854 54.645.17.382 26.943 22.867 40.675 32.85 20.317 14.778 44.364 25.87 65.426 39.71 7.94 5.22 14.418 4.634 20.744 3.302 1.434 2.607 2.89 5.19 4.277 7.758.4.734 1.34 1.104 2.14.893 1.674 5.302 7.55 8.967 13.646 11.42 9.894 7.155 21.403 11.82 33.742 14.53 21.21 4.66 41.773 1.502 63.094 1.144 9.586-.156 22.075 2.21 27.17 11.184.428.758.81 1.54 1.153 2.337-6.404-.752-12.763-1.96-19.014-3.64-8.108-2.18-17.23-1.605-25.458-.573-7.418.935-15.64 2.87-21.05 8.393-3.52 3.6-4.278 9.815-.2 13.204 2.215 1.843 5.722 2.682 9.636 2.712-1.77 3.45-2.14 6.89-.05 9.478 4.796 5.945 17.716 3.42 26.845-1.13-.03 2.08.313 4.23.846 6.128 2.408 8.438 11.796 6.97 18.52 4.992 14.85-4.37 18.198-21.504 15.262-35.02 30.66 2.227 62.794-6.605 89.084-21.812-2.262 8.017-4.747 15.535-7.32 24.198-.33 1.083-1.51 7.488-2.234 11.11-.168.868 2.87 4.714 3.168 5.547.042.118.093.247.135.37-.117.37-.234.74-.346 1.134-1.053 3.76-2.834 7.308-4.32 10.907-1.14 2.78-.217 3.05-3.965 9.612l8.573 6.958s1.973-4.576 2.73-6.477c.904-2.26 1.98-4.466 3.085-6.66.048.123.093.252.147.38.283.753 7.577 19.635 9.048 22.42 5.827 11.042 11.15 22.352 16.45 33.664.182.388.43.776.687 1.176-1.868 4.006-3.143 8.327-5.48 12.065-1.04 1.672-2.04 6.3-2.04 6.3s7.972 2.703 8.336 2.808c1.005.304 2.846-5.55 2.846-5.55 0-.004 3.57-7.03 5.315-10.574 3.175.436 6.306.782 7.242.97 8.68 1.758 17.33 3.712 26.032 5.444 14.195 2.82 28.372 5.705 42.63 8.207 12.607 2.213 25.28 4.03 37.96 5.82 10.96 1.55 21.96 2.865 32.958 4.158.782.088 3.754.623 7.328 1.158-.83 3.407-3.11 6.496-3.568 10.026-.24 1.91-.8 6.207-.8 6.207s8.438 2.68 10.176 2.416c1.74-.27 1.37-1.88 3.667-8.56 1.104-3.204 3.014-5.878 3.908-8.972 1.284-.093 2.213-.34 2.565-.788.512-.64 2.34-5.344 2.386-5.497 3.495-11.4 7.015-22.79 10.465-34.207 1.16-3.84 2.02-7.777 3.218-11.605 2.09-6.69 4.536-13.28 6.464-20.015 1.72-6.04 2.867-12.23 4.398-18.326 1.958-7.746 4.253-15.423 6.022-23.212 2.563-11.29 4.455-22.74 7.24-33.972 3.718-14.98 8.04-29.806 12.054-44.707 1.392-5.187 2.508-10.444 3.973-15.604zM120.02 97.142c-.942.864-2.004 1.682-2.657 2.743-2.01 3.302-4.316 2.944-6.855.782-.96-.82-1.83-1.768-2.732-2.655 1.258-.253 2.515-.53 3.767-.758 2.713-.487 5.432-.95 8.266-1.443.51.118 1.12.26 1.73.4-.516.304-1.09.533-1.52.933zm80.528 13.626c-.162-.063-.63.487-.797.4-13.56-6.62-47.024-16.978-56.53-18.166-6.957-.87-29.45-3.278-44.287.123-1.55.358-2.92 1.997-4.266 3.173-1.92 1.684-3.342.51-4.112-1.01-.475-.948-1.838-2.59-1.158-3.19 1.387-1.216 4.69-3.658 6.428-3.712 6.967-.217 19.102-.968 19.213-.968 1.062-.03 7.162-.307 7.162-.307 4.106 0 11.368.43 15.462.136 2.815-.198 5-4.456 5.023-5.286.012-.48-.135-2.472 3.28-1.874 3.413.6 3.518 2.433 3.476 2.81-.652 5.983 2.757 5.448 7.034 6.828 5.923 1.91 6.768 1.353 12.18 3.612 32.8 13.72 32.25 17.573 31.894 17.432zM311.37 94.505c2.516 3.708 4.333 7.975 5.536 12.534-.13.177-.235.387-.3.64-1.426 5.563-11.633 5.614-16.548 5.316-.602-2.384-1.393-4.91-2.434-7.19 6.28-.87 11.828-5.322 13.747-11.3zm-3.136-3.957c-.253 6.57-6.416 11.475-12.754 11.557-1.098-1.492-2.386-2.64-3.884-3.27 3.49-5.075 5.066-10.666 5.32-16.908 4.327 2.008 8.192 5.32 11.318 8.62zm-12.002 23.128c-4.212.875-9.695 2.174-11.657-2.63-1.41-3.447-.463-6.238 2.57-8.253 3.71-2.472 5.72 3.753 6.75 5.52.98 1.685 1.738 3.49 2.337 5.363zm-7.286-33.665c1.435.007 2.834.206 4.202.55-.006.074-.042.125-.042.197-.08 6.55-1.645 12.386-5.856 17.507-.042.05-.067.094-.1.148-.207.048-.4.123-.595.183-1.116-3.073-3.736-5.728-6.004-7.906-2.01-1.928-4.57-4.153-7.348-5.212 4.653-3.464 10.558-5.51 15.744-5.467zm-23.46 15.957c.77-2.755 2.31-5.245 4.308-7.416.117.034.234.07.364.09 2.966.423 5.56 2.822 7.667 4.774 2.028 1.873 4.612 4.35 5.313 7.124.015.075.05.14.07.204-.407.43-.765.91-1.093 1.417-4.843-3.718-13.148-2.257-17.697 1.96.037-2.906.382-5.69 1.068-8.153zm3.162 26.385c-2.052-3.825-3.342-8.252-3.908-12.675.35-.205.64-.524.83-.97 1.745-4.206 11.867-7.054 14.945-2.89l.006.007c-.252 1.044-.35 2.102-.303 3.137-.202.046-.406.118-.61.247-4.684 2.884-9.148 7.687-10.96 13.145zm7.637 8.57c-1.732-1.09-3.248-2.487-4.6-4.084.29-5.69 4.81-11.03 9.45-14.03.89 2.12 2.23 3.487 3.877 4.293-2.256 4.882-4.925 10.81-4.03 16.147-1.635-.635-3.217-1.4-4.697-2.325zm9.13 3.657c-2.362-4.98 1.182-11.816 3.372-16.505 2.623.235 5.553-.183 8.407-.69 1.01 4.95 1.122 10.187.978 15.01-.024.752-.09 1.498-.147 2.25-4.137.875-8.468.84-12.61-.066zM70.738 350.52c-.406 3.758-.045 9.137-.352 13.955-.054.82.316 7.15-2.238 7.54-2.563.393-2.996-6.19-3.014-7.065-.183-10.26-1.305-23.54-1.81-33.75-.13-2.507-1.457-12.816 3.43-12.467 3.31.24 4.483 5.56 4.496 10.026.012 4.455-.512 21.76-.512 21.76zm81.248-15.073c-3.08.67-4.482-5.35-4.617-6.156-1.59-9.44-4.72-21.554-6.694-30.915-.488-2.298-3.484-11.647 2.544-11.912 4.07-.18 6.22 4.59 6.826 8.7.607 4.117 2.262 20.145 2.262 20.145 0 3.512 1.152 8.43 1.423 12.91.043.77 1.333 6.56-1.744 7.23zm73.716-46.506c-2.44.043-4.87.167-7.316.12-5.992-.12-11.978-.053-17.97-.047-11.13.013-22.25-.177-33.36.154-4.813.132-5.23.105-11.385.376-2.003.087-3.16-.806-3.35-2.544-.328-3.102-5.887-5.423-9.506-5.288-3.507.13-8.043 3.26-7.23 7.223.652 3.19-1.74 5.353-5.482 6.5-5.023 1.53-36.656 20.038-45.803 23.836-2.276.95-2.838.925-5.142 1.788-4.136 1.557-3.213 1.702-4.218-2.608-1.004-4.318-10.84-6.925-14.354-2.907-.27.306-1.31-7.218-1.45-7.813-2.244-9.83-4.307-19.71-6.6-29.53-2.153-9.268-5.032-18.4-6.69-27.75-1.904-10.757-6.92-44.957-7.802-54.46-.037-.37-.316-2.613-2.533-2.877-1.374-.17-4.346 1.07-4.547 1.603-.205.535.135 2.544.135 2.544s-.205 1.675-3.014 2.342c-2.813.67-4.175-5.037-4.28-5.62-.732-3.894 2.565-4.475 6.238-5.64 2.695-.862 5.276-2.06 7.908-3.093.54-.217 1.104-.37 1.652-.56.138.682.39 1.368.397 2.057 0 1.344.534 3.02 1.003 4.023.473 1.005 3.655.388 4.013-.264 1.077-1.946 1.152-3.002.83-4.32-.718-2.892.076-6.957-3.242-7.673-1.33-.29-4.648.28-5.23-3.443-1.26-7.987 2.002-10.925 3.548-12.874 7.544-9.58 17.832-16.04 26.974-23.756 3.946-3.338 9.066-5.34 13.77-7.707 7.704-3.877 15.24-8.282 23.325-11.094 6.423-2.247 13.513-2.885 20.37-3.426 6.198-.48 12.515.547 18.736.17 7.19-.435 21.23 1.15 28.44 1.58 11.245.67 24.38 4.21 25.176 4.418 7.625 2.008 8.296 2.54 6.687 5.485-1.13 2.078-7.928 4.78-9.032 5.584-.9.66-2.093 1.523-2.238 2.434-.14.962.545 2.59 1.35 3.013.918.48 2.627.37 3.538-.202 4.594-2.853 8.53-7.235 13.076-10.158.7-.454 1.805-.628 2.64-.472 3.76.7 6.41.935 10.112 1.874.48.122 5.622.705 5.42 3.412-.198 2.712-2.343 4.805-3.41 6.125-.097.118-7.54 9.563-10.644 12.146-2.072 1.723-1.39-3.506-1.51-3.61-.364-.353 9.443-9.94 7.322-11.432-1.492-1.62-2.683-1.373-4.476-2.482-1.317-.803-3.974-.746-5.3.084-2.69 1.672-7.938 6.176-8.718 6.528-1.386.635-4.5 4.207-3.55 4.62 1.5.65 3.884.796 5.2.002 3.007-1.807 5.576-4.34 8.373-6.522.346-.277 3.658-.036 3.16.667-1.093 1.534-4.507 4.706-5.52 6.228-.985 1.462-1.59 4.857-1.306 6.417 2.89 16.36 4.987 29.275 7.914 45.62.71 3.953 4.453 27.11 7.33 41.71-8.304 5.687-17.154 10.168-26.536 12.763-.105.03-.198.078-.29.114-.203-.043-.37-.115-.468-.232-1.615-1.844-2.403-1.838-3.55-3.645-3.612-5.92-6.656-5.858-11.207-6.892-1.51-.345-15.165 3.414-14.584 19.343-.653 8.435 3.092 15.288 10.164 20.728 5.863 4.506 15.922 1.32 20.247-4.405.686-.91 1.266-2.983 1.636-4.958 10.884-2.917 20.934-7.028 30.253-12.215-.148 1.52.37 4.252.577 5.533.316 1.924.352 3.912.54 5.86.317 3.366 1.49 15.05.4 16.62-.952 1.382-3.933.855-5.61.876zm-20.287-35.284c2.103-.806 4.175-1.68 6.203-2.662.29 4.818 2.015 8.6 5.77 11.03-2.356 1.01-4.74 1.952-7.15 2.833-.124-.14-.266-.283-.446-.4-3.613-2.34-4.27-6.784-4.377-10.8zm.593 12.663c-2.09.684-4.196 1.32-6.317 1.902-1.437-1.627-.574-8.146-.147-12.576.7-.204 1.387-.424 2.076-.64.282 4.228 1.35 8.387 4.388 11.313zm9.424-16.53c0-.25-.066-.462-.14-.67 2.113-1.14 4.18-2.39 6.22-3.686.9 2.46 2.186 4.69 4.166 6.507 1.516 1.403 3.323 2.425 5.158 3.384-2.92 1.672-5.904 3.23-8.943 4.668-.063-.02-.11-.058-.174-.082-4.814-1.702-6.237-5.28-6.288-10.12zm-20.804 17.867c.193.794-2.05.818-3.883.875-1.83.054-2.78-3.582-2.957-5.32-.217-2.075.117-4.8 1.375-6.228.893-1.02 3.703-.42 5.652-.363.19.007.577 1.336.47 1.97-.422 2.496-1.327 6.26-.657 9.067zm-11.91-1.432c1.075 4.58 3.85 7.9 9.167 7.945.28.006.556.23.845.346-.264.376-.454.848-.8 1.128-1.357 1.106-3.366 2.808-5.432 2.857-5.26.124-11.458-4.023-12.352-8.428-3.014-14.86.148-18.236 3.78-22.11 2.39-2.546 7.555-2.083 8.91 1.22.248.585-.04 1.806-.522 2.206-4.906 4.078-4.864 9.458-3.595 14.837zm52.742 26.66s14.11 20.25 16.204 24.23c.352.677 4.422 4.923 1.892 6.802-2.532 1.874-6.287-3.037-6.74-3.716-5.322-7.96-11.862-14.777-17.514-22.496-1.386-1.894 6.158-4.82 6.158-4.82zm-.734-39.87c-1.874-.986-3.772-1.93-5.517-3.142-2.3-1.603-3.587-4.024-4.396-6.63 2.15-1.48 4.26-3.026 6.32-4.647 1.498 4.577 5.706 8.3 10.27 9.95-2.178 1.555-4.404 3.053-6.678 4.47zm10.585-7.383c-.116-.048-.233-.08-.37-.11-4.646-.852-9.432-4.412-10.43-9.224-.025-.123-.067-.234-.11-.334 1.77-1.473 3.496-2.995 5.202-4.534 2.76 4.7 7.427 7.466 12.607 8.4-2.227 2.02-4.53 3.96-6.9 5.802zm10.535-9.262c-.05 0-.105-.012-.168-.012-5.2-.123-10.12-2.336-12.796-6.95-.135-.234-.3-.414-.48-.555 2.25-2.12 4.445-4.277 6.59-6.457.024.042.036.084.07.13 2.755 4.182 7.883 6.75 12.92 7.27-1.962 2.286-4.008 4.472-6.135 6.574zm9.244-10.308c-.103-.006-.196-.018-.308-.012-4.437.228-9.863-1.627-12.396-5.467-.247-.376-.565-.623-.9-.752 1.947-2.032 3.854-4.07 5.716-6.1.743-.806 1.477-1.62 2.21-2.433 2.528 4.357 7.127 6.186 11.934 6.9-2.082 2.64-4.166 5.258-6.257 7.865zm9.032-11.418c-4.71-.34-9.592-1.516-11.83-6.108-.054-.105-.106-.192-.172-.282 1.94-2.196 3.866-4.433 5.758-6.706 2.532 4.017 6.98 5.972 11.617 6.1-1.775 2.344-3.562 4.677-5.373 6.996zm8.264-10.86c-.226-.04-.46-.053-.72-.017-4.394.67-9.012-1.068-11.072-5.133-.042-.087-.096-.154-.14-.23 2.525-3.117 4.98-6.302 7.353-9.555 2.386 3.436 6.7 5.66 10.91 6.166-2.07 2.947-4.184 5.873-6.33 8.77zm14.715-21.26c-1.873 2.942-3.81 5.85-5.786 8.733-3.755.205-9.322-1.696-10.887-5.416-.057-.14-.13-.263-.198-.374 2.643-3.79 5.158-7.66 7.495-11.61 3.008 2.976 7.76 3.938 12.16 4.245-.928 1.487-1.854 2.96-2.784 4.425zm5.085-8.158c-4.18-.078-10.03-.523-12.31-3.843-.047-.063-.093-.11-.14-.162 2.102-3.77 4.03-7.616 5.763-11.53 2.984 3.318 8.666 4.124 13.4 3.57-2.078 4.09-4.358 8.078-6.713 11.966zm8.81-16.274c-3.883 1.004-10.943 1.19-13.088-2.42-.213-.353-.478-.588-.77-.735 1.276-3.302 2.33-6.71 3.138-10.18 4.975 2.316 10.786.97 15.96-.67-1.32 4.782-3.13 9.446-5.24 14.005zm7.728-28.704c-.265.41-.29.905-.123 1.375-.232 2.607-.566 5.145-1.005 7.517-.09.476-.208.95-.3 1.42-4.92 1.657-11.28 4.002-16.064 1.224-.044-.03-.098-.042-.146-.066.695-3.94 1.065-7.933 1.053-11.924 5.005 2.192 11.737 1.07 16.68-1.386-.03.613-.055 1.236-.094 1.84zm-16.692-4.922c-.023-.024-.047-.03-.077-.048-.13-1.772-.334-3.534-.623-5.29-.11-.665-.252-1.428-.403-2.237 5.382.217 13.15-.372 17.13-4.294.552 3.453.834 6.977.86 10.46-4.538 2.913-12.238 4.745-16.886 1.41zm160.88-85.352c3.777 2.42 6.95 13.24 9.293 19.63-8.684-4.706-25.39-2.156-32.472-1.076-5.103.782-10.145 2.102-15.096 3.79-.836-2.317-1.658-4.63-2.494-6.945 13.28-5.62 36.88-17.89 40.77-15.4zm-50.603 7.06c.617 1.697 1.233 3.396 1.844 5.092-1.79.782-3.576 1.57-5.357 2.354 1.165-2.484 2.332-4.967 3.514-7.445zm3.93 10.86c.8 2.22 1.593 4.44 2.387 6.66-3.79 1.534-5.01 1.934-8.666 3.783-2.14-1.603-5.466-4.998-5.295-5.334 3.842-1.733 7.7-3.435 11.575-5.11zm-14.142 9.98c.682 1.16.276 3.016.9 4.21-1.665.887-2.27 1.128-3.897 2.05.864-2.12 1.917-4.212 2.997-6.26zm-3.12-22.608c1.405 2.42 2.14 5.14 1.88 8.1-3.66.477-7.126 1.358-9.147 4.74-.653 1.087-.927 2.277-.87 3.405-.216-.092-.463-.155-.746-.155-4.13-.024-7.556-.707-10.946-2.87 1.005-5.806 4.79-9.676 10.194-11.832 2.632-1.047 6.75-2.316 9.635-1.387zM386.115 64.1c-9.98 4.8-19.853 9.83-29.575 15.177.322-.93.647-1.86.975-2.79 1.257-3.567 2.527-7.142 4.085-10.59 2.62-5.814 8.63-5.598 13.963-5.297.34.018.63-.042.87-.147 3.05 2.156 6.223 3.217 9.683 3.647zm3.878-27.735c2.08 1.065 3.99 2.38 5.616 3.895-3.027.24-6.222 1.305-8.55 2.327-5.95 2.613-10.32 7.235-11.548 13.665-2.045-5.59-2.704-11.046 1.216-15.992 2.514-3.173 9.186-3.76 12.895-3.847.135-.006.253-.024.37-.048zm-23.135-.276c.093-.13.168-.26.223-.383.933-.48 1.887-.938 2.88-1.35 3.365-1.393 7.59-1.585 11.815-.803-3.31.827-6.416 2.27-8.426 4.802-4.338 5.476-3.926 12.083-1.775 18.314-.3.012-.6.024-.894.042-.08-.106-.17-.208-.28-.307-2.146-1.92-5.04-4.845-6.03-7.575-1.29-3.56.27-9.81 2.488-12.74zm-5.866 3.595c-.785 2.923-1.016 6.108-.64 8.71.484 3.253 3.092 6.58 5.62 9.108-1.364.418-2.645 1.022-3.828 1.87-4.172-1.404-9.505-4.977-9.48-9.797 0-.346-.088-.635-.215-.88 2.48-3.36 5.282-6.422 8.542-9.01zm-11.554 13.448c1.53 4.2 5.616 7.413 9.76 9.223-.167.23-.332.45-.495.698-1.387 2.15-2.48 4.61-3.426 7.178-.283-.205-.623-.364-1.065-.37-3.865-.054-9.785-1.24-10.456-5.816-.018-.123-.054-.228-.087-.334 1.777-3.617 3.657-7.196 5.768-10.58zm-8.043 15.33c2.632 3.748 8.34 5.164 12.694 5.245-.916 2.872-1.74 5.75-2.64 8.405-1.53.863-3.058 1.726-4.587 2.607-3.988.166-8.383-1.29-9.998-5.067-.018-.042-.042-.072-.06-.105 1.428-3.732 2.89-7.45 4.59-11.084zm-10.423 25.673c1.504-3.31 2.824-6.685 4.112-10.068 1.61 1.89 3.877 3.142 6.356 3.83-.235.142-5.622 4.44-1.402 12.086-4.148-.408-9.114-1.954-9.337-5.172 0-.024-.005-.036-.005-.054.087-.21.19-.42.277-.622zm-8.525 33.238c.093-2.502.07-5.016-.093-7.554-.26-4-.77-7.942-1.607-11.746.33-.16.653-.334.972-.524 1.89 5.528 6.403 10.432 12.094 11.98-3.3 3.18-7.2 5.763-11.367 7.844zm18.26-17.298c-1.204 2.55-2.744 4.85-4.52 6.938-.168-.53-.568-.99-1.28-1.176-4.928-1.317-8.65-5.88-9.9-10.702-.027-.106-.07-.2-.105-.292 1.492-1.687 2.71-3.702 3.754-5.756 2.827 3.3 8.42 4.803 13.055 4.875.283.668.56 1.344.84 2.02-.593 1.37-1.203 2.737-1.844 4.093zm3.666-16.18c.433-1.07 2.566-1.77 3.835-2.497-.728 2.044-1.468 4.08-2.238 6.107-.223-.545-2.027-2.544-1.597-3.612zm19.116 37.224c-.515.058-1.41.665-1.896.863-.13-.222-3.61-7.734-5.25-11.084-2.94-5.997-5.678-12.105-8.27-18.272.182-.44.366-.88.546-1.332 1.664-4.228 3.204-8.505 4.702-12.793 2.4-1.38 13-7.936 19.37-11.376 7.49-4.047 14.768-6.967 22.484-10.612-1.44 2.878-4.85 11.908-5.577 12.35-6.598 4.036-25.145 23.2-29.447 29.954-4.39 6.89 1.552 18.166 3.336 22.3zm96.928 219.27c-16.316-33.88-32.325-67.484-45.497-100.93-19.218-48.805-33.286-91.38-48.8-128.236-.955-2.267-2.583-6.39-.58-10.137 5.962-11.166 14.752-18.62 25.5-25.543 9.217-5.933 19.258-11.63 29.738-15.83.734 2.057 1.477 4.117 2.217 6.174 2.632 7.37 7.144 19.276 9.788 26.788-.996.4-5.466 3.166-5.664 5.572-.203 2.41 3.317 16.112 7.47 13.698 4.15-2.41 7.046-12.158 6.733-13.133-.006-.06-.006-.11-.02-.165-2.928-11.677-8.07-23.146-12.118-34.47-.797-2.226-1.597-4.457-2.397-6.683 4.247-1.434 8.555-2.586 12.895-3.383 8.925-1.633 28.162-4.712 32.81 5.14 4.352 9.237 9.252 18.746 13.493 28.038 10.787 23.61 18.37 48.367 29.224 71.107 14.652 30.7 24.206 53.954 39.21 86.14 5.005 10.73 16.322 30.288 21.026 40.996.4.9-.64 2.65-1.874 2.724-8.525.5-26.296 3.666-29.064 4.388-6.798 1.786-22.235 5.455-40.948 15.5-11.404 6.118-20.15 12.45-30.168 20.592-7.175 5.836-6.735 4.91-12.974 11.652zm25.006 61.928c.938 3.194-1.498 5.825-4.696 1.22-3.194-4.603-10.57-32.256-16.297-49.364 1.586.24 3.508-.628 7.458 2.19 3.946 2.82 9.147 29.33 13.536 45.954zm4.268-55.334c-7.472 1.245-16.367 2.667-23.938 1.158-.806-.166-1.483-1.832-.466-2.78 9.232-16.343 42.666-33.862 42.666-33.862s1.522 1.338 3.132 4.925c2.508 5.588 7.89 20.052 9.012 22.954-9.936 3.328-20.046 5.884-30.406 7.604zm55.956 27.236c.118 2.008-1.534 2.565-4.112 1.48-2.833-1.186-7.586-18.218-11.62-27.258-5.97-13.357-11.858-26.162-16.34-39.886 1.88-.827 7.45-3.55 9.37-4.283 5.195 13.515 8.21 28.23 12.803 42 .06.365.17.723.35 1.06 3.02 9.054 9.437 24.884 9.548 26.887zm13.15-31.933c-5.458 2.848-12.35 4.793-17.884 1.645-4.56-13.662-7.984-27.33-13.143-40.732 8.674-2.86 16.416-4.91 25.27-6.532 8.283-1.515 18.276-3.32 26.72-1.626.34.733.677 1.473 1.03 2.207.702 2.92-.236 6.302-11.33 13.82-6.578 4.462-17.35 13.29-24.335 17.507-.24-.667-1.69-5.43-1.69-5.43s-6.627 1.413-5.16 5.295c3.05 8.07 7.948 15.09 17.18 9.975 3.297-1.823 6.226-4.43 8.064.667.33.923-4.095 2.872-4.723 3.203zm6.36-11.73c-1.89-1.07-4.11-1.514-6.3-1.027-2.763.61-7.18 5.11-10.024 4.31 10.504-6.396 19.318-13.226 27.776-21.89 2.01 1.604 3.41 5.663 5.183 8.95-5.62 3.09-10.958 6.68-16.634 9.656zm42.748 15.753c.69 1.53-.14 4.746-2.76 3.065-2.684-1.72-24.276-35.668-24.406-39.556-.123-3.884 2.3-5.522 3.08-6.373 7.355 14.82 16.416 28.25 24.086 42.863zM711.703 22.49c.592-.733 3.49-1.208 4.858-1.145 10.078.478 19.108-.433 28.42 3.8-2.174 1.276-2.773 3.465-5.904 7.63-5.288 7.043-14.43 5.35-21.968 3.395-4.488-1.164-7.09-.53-6.885-5.527.11-2.713.67-5.533 1.48-8.153zm10.41 52.595c6.423 1.387 12.123 0 16.01-4.34 8.693 6.677 16.983 13.675 24.666 20.702-6.718-.024-12.828 2.03-18.45 5.308-4.623-5.386-11.746-9.62-17.42-13.72-6.726-4.855-14.147-8.795-21.345-12.957 5.565 1.456 10.913 3.792 16.538 5.007zm-39.85 27.06c-1.64-4.377-9.007-6.06-11.663-4.92 1.697-3.375 5.716-10.953 11.335-8.38.412.275.83.542 1.242.816 2.358 2.265 3.718 8.093-.914 12.484zm2.45-16.16c-2.207-3.177.06-4.612 3.166-6.142 2.02-.993 5.398-1.654 7.585-2.25 2.825-.754 5.312-2.4 7.28-4.673 5.805 3.45 11.69 6.775 17.446 10.303 6.547 4.01 15.484 9.614 20.89 15.607-6.4 4.4-12.132 10.284-17.345 16.307-6.88-3.927-12.854-10.846-19.128-15.61-6.402-4.86-13.18-9.144-19.893-13.54zm-15.57-53.373c3.807 1.185 7.603 2.56 11.38 4.075.013.135.01.262.03.4.582 3.518 2.474 5.596 5.395 7.605 1.073.746 2.806 1.456 4.148 1.62 2.737.353-.614 2.323-1.81 3.68-1.662 1.878-2.426 4.83-2.332 7.754-3.126-2.057-6.25-4.114-9.407-6.122-7.568-4.815-14.718-10.7-22.714-14.83 5.764-3.6 11.17-5.475 15.31-4.182zm-18.964 6.65c6.92 3.313 13.096 8.152 19.428 12.428 5.856 3.95 11.803 7.782 17.762 11.595.734 1.293 1.742 2.36 3.048 3.01 1.254.626 2.565 1.065 3.895 1.44.198.127.394.253.593.383 1.64 1.046 3.3 2.057 4.963 3.067-4.026 3.076-10.647 3.714-14.653 5.68-2.48 1.224-4.236 3.402-5.358 5.907-7.626-5.173-14.782-10.98-22.594-15.887-7.527-4.736-15.8-7.93-22.663-13.698C639.48 48.09 644.89 43.1 650.18 39.26zm-26.286 26.342c2.28-2.968 5.042-6.267 8.083-9.605 5.8 4.865 12.45 8.23 19.095 11.793 8.802 4.718 16.614 10.99 24.693 16.798.313.226.638.434.954.656-5.545 1.766-9.275 10.928-9.24 12.646.05 1.95 1.794 4.3 5.722 6.22 3.168 1.55 8.507 2.055 10.5.67 2.104-1.463 4.81-5.444 5.04-7.91.13-1.395.117-2.55-.003-3.557 3.867 2.52 7.733 5.05 11.484 7.746 7.003 5.03 13.458 12.64 20.95 17.09-2.04 2.44-4 4.86-5.892 7.185-3.474 4.258-6.257 8.862-8.66 13.667-6.822-2.718-12.532-7.683-18.83-11.352-8.456-4.935-17.55-8.78-25.816-14.01-15.67-9.912-29.91-22.95-46.667-31.22 2.23-6.002 4.794-11.89 8.584-16.816zm25.833 89.598c-13.96-9.644-27.208-20.464-40.088-31.53-1.692-1.444-4.03-5.03-2.93-13.565 7.07 3.963 12.95 9.595 19.422 14.44 8.32 6.228 16.97 12.152 25.76 17.68 7.51 4.71 14.912 9.48 22.17 14.577 7.09 4.998 14.506 8.676 22.07 12.67-.763 5.163-.703 10.272.554 15.51-16.32-8.762-31.89-19.375-46.96-29.782zm49.715 1.392c-1.053 3.034-1.934 6.008-2.584 8.943-6.404-3.266-12.81-6.306-18.73-10.555-7.91-5.66-15.98-11.024-24.283-16.085-8.05-4.905-15.657-10.5-23.33-15.96-7.773-5.52-14.583-12.415-23.084-16.842.696-3.24 1.794-6.998 3.472-11.442 1.053-2.79 2.052-5.693 3.087-8.604 17.265 8.64 32.09 22.093 48.29 32.344 7.98 5.043 16.926 8.71 25.1 13.478 5.952 3.47 11.222 7.906 17.597 10.588-2.076 4.59-3.866 9.323-5.535 14.134zm29.482 26.252c-.876-.204-4.254-1.103-4.988-.634-.737.463-1.113 1.54-1.113 1.54s-2.03-.653-3.077-1.576c-.617-.55.223-5.9.475-8.162 1.325 1.93 5.154 3.81 6.893 4.815 1.74 1.003 5.992 3.313 12.45 2.678-2.298 1.245-7.72 2.96-10.206 2.977-.045-.105.436-1.437-.433-1.64zm2.67-11.51c1.324-3.02 2.224-6.226 3.352-9.305 2.202.037 4.864-.71 5.814-2.15.006.22.037.437.097.653.162.6.622 1.215 1.062 1.657l.99.71c-2.372 3.437-6.313 5.71-8.436 9.304-.25-.14-2.103-.677-2.88-.87zm2.88 20.808c-.816-1.452-1.74-3.067-2.473-4.546 4.432-.512 10.442-4.517 10.64-5.825.202-1.305-1.867-4.96-3.675-6.42 1.997-3.525 3.564-7.482 5.968-10.72 1.898.6 5.282-.223 6.28-2.004 1.5-2.665 1.474-4.88-1.81-7.693-2.043-1.744-5.574-.71-7.126 1.332-.187.24-.376.51-.55.787.228-3.055-1.91-6.192-7.052-5.527-3.784.48-4.548 4.282-4.482 5.957.063 1.666.668 2.4 2.22 3.416-1.203 3.407-2.92 6.68-4.347 10.014-3.014-.063-6.36.018-8.75.478-1.402.268-1.913 2.764-1.93 2.947-.347 3.088-1.436 6.99-.15 9.94.717 1.638 2.973 2.552 4.983 3.14.952 2.413 2.032 4.792 3.208 7.137-4.494.66-9.024.128-13.16-2.386-8.284-6.167-6.163-18.872-4.16-27.506 2.427-10.465 7.063-20.533 12.808-29.578 4.87-7.674 11.732-14.4 18.43-20.467 7.924-7.172 19.312-15.65 30.65-12.958 8.21 1.95 12.697 11.03 13.196 18.696.77 11.828-5.616 23.676-11.364 33.52-7.53 12.908-17.1 24.726-29.434 33.306-3.06 2.132-4.242 3.536-7.92 4.958zm463.03-170.43c4.802 3.32 2.564 13.145.906 19.51-.43-.68-.956-1.283-1.603-1.755-.54-.39-1.122-.675-1.733-.89 2.073-4.873 3.742-11.543 2.43-16.865zm-17.987 5.48c2.782-5.678 7.643-7.705 13.3-6.947 3.08 4.345.495 13.033-1.632 17.637-.848-.063-1.7-.1-2.51-.153-4.036-.29-8.19-.444-12.214.073-.562.07-1.09.198-1.59.37 1.386-3.726 2.89-7.4 4.647-10.98zM839.792 163.21c-10.916-3.558-19.616-12.432-21.044-24.024-.395-3.25-.66-8.947 2.484-11.025 2.92-1.938 6.865-1.403 10.25.422 1.56 5.726 4.28 10.69 7.787 12.697.976.56 2.643.116 2.826-1.153.912-6.12-2.304-10.89-7.033-13.713-.863-5.19-.64-10.804-.06-14.36 1.736-10.644 14.325-2.898 18.915 4.743.087 2.304.692 4.478 1.925 6.126 1.116 1.492 3.52 1.07 3.595-.974.066-1.776-.55-3.84-1.634-5.95.103-5.045 3.643-10.55 9.232-8.134 2.798 1.215 4.693 4.592 5.745 7.34 1.716 4.5 2.098 9.452 2.152 14.215.142 12.785-3.58 25.466-9.394 36.833-8.585.998-17.603-.388-25.746-3.043zm-27.142 54.236c23.117-9.397 43.247-25.61 55.297-47.5 1.24-.172 2.46-.376 3.643-.623 25.674-5.38 41.117-37.294 54.203-56.988 6.344-9.55 13.295-21.192 25.216-23.87 16.05-3.6 36.072 1.54 46.218 14.954 2.72 3.604 4.23 7.83 4.93 12.21-2.07 6.97-4.26 13.91-6.362 20.873-.93 3.062-2.605 8.652-4.36 14.59-18.324-7.694-41.062-19.353-61.16-12.61-10.506 3.53-15.16 14.325-15.27 24.72-.03 2.48.57 4.722 1.62 6.713-1.04.818-2.045 1.68-3.007 2.592-6.13 5.843-10.394 13.424-15.715 19.955-7.617 9.328-17.4 15.75-28.697 19.81-20.59 7.414-43.75 6.824-65.34 8.626l-.666.053c3.185-1.065 6.34-2.244 9.448-3.507zm63.946 49.258c-.406 7.27-3.75 14.094-10.03 17.955-3.783 2.33-8.42 2.76-12.756 2.754-4.194-.012-6.245-6.643-5.123-10.844 2.145-1.398 3.853-2.878 4.864-4.294.8-1.116-.246-3.077-1.66-2.9-3.384.422-5.324 2.343-6.292 4.87-6.06 3.446-15.17 4.835-20.606 4.748-6.332-.112-4.064-5.25-1.392-9.028 7.796-1.31 15.593-5.295 17.296-10.73.343-1.085-.397-2.002-1.345-2.372-4.84-1.903-13.294 2.953-18.492 9.085-.325.04-.623.08-.9.116-3.155.382-7.204.47-9.776-1.675-3.95-3.277 2.214-8.584 4.684-10.094 13.957-8.528 32.836-4.99 47.656-1.79 4.215.912 8.492 1.577 12.803 2.022 1.03 3.975 1.293 8.188 1.07 12.176zm-47.832-2.388c2.088-1.81 4.708-3.594 7.15-3.97-1.61 1.814-4.304 3.083-7.15 3.97zm75.786-14.04c-8.733 1.08-17.51 1.208-26.222.47-8.085-24.11-40.65-16.586-59.956-16.045-18.66.53-37.983-1.725-54.615-9.43 5.652.94 11.28 1.075 16.86.6 16.78.475 34.464-2.496 49.588-3.23 27.142-1.326 54.14-7.007 71.794-29.16 5.233-6.553 9.51-13.884 15.767-19.57.346-.31.722-.57 1.074-.858 5.984 6.604 17.622 8.94 25.19 5.17 9.765-4.863 5.304-15.818-4.812-16.14-6.71-.21-13.185 1.768-18.82 5.208-1.88-4.802-1.344-10.795 1.006-16.034 2.75-6.13 8.543-9.168 14.863-10.323 12.393-2.262 26.188 2.73 37.624 7.018 5.566 2.08 10.978 4.527 16.453 6.825-2.843 9.586-5.592 18.9-5.592 18.9-.048.183-.102.37-.153.565-2.21 7.906-4.777 15.71-6.915 23.633-2.702 9.98-5.093 20.04-7.767 30.026-.21.044-.43.117-.653.252-19.588 11.833-42.04 19.297-64.712 22.123zm17.723-79.642c2.298-1.38 4.753-2.496 7.31-3.338 4.346-1.42 9.183-2.156 13.512-.315 3.56 1.504 3.49 5.05.457 7.182-3.465 2.438-8.39 2.414-12.324 1.663-4.097-.776-7.01-2.668-8.955-5.19zm221.204 126.833c-7.977-.593-13.987-1.462-21.896-2.596-19.193-2.74-38.34-5.814-57.534-8.52-8.537-1.204-17.155-1.71-25.71-2.773-3.52-.433-6.927-1.627-10.423-2.262-12.36-2.237-24.756-4.258-37.095-6.606-6.522-1.246-12.953-2.967-19.405-4.566-.617-.157-7.367-2.226-7.38-2.75-.098-5.12 2.696-8.103 3.668-14.394.864-5.56 2.825-10.952 4.336-16.41 3.29-11.84 14.977-54.093 17.672-63.297.993-3.4 1.62-6.91 2.737-10.267 1.246-3.735 8.173-25.66 13.173-41.886.51-.29.863-.824.824-1.612-.018-.274-.054-.544-.078-.815 2.138-6.965 3.814-12.564 4.35-14.636 3.052-11.866 13.55-45.46 14.78-50.805 1.033-4.523 5.04-4.98 21.44-4.646 4.704.102 9.427.37 14.152.424 6.92.075 13.858.012 20.786-.037 9.2-.057 18.394-.14 27.59-.24 6.257-.063 12.513-.193 18.764-.265 6.558-.08 13.118-.316 19.664-.162 9.713.228 19.423.637 29.13 1.173 6.75.368 13.47 1.087 20.214 1.625 2.503.208 5.012.53 7.514.482 3.363-.064 4.876 2.82 4.597 5.533-.623 5.945-20.55 78.456-24.032 92.106-1.672 6.59-3.393 13.168-4.993 19.775-.505 2.07-1.257 3.056-3.495 1.976-1.41-.682-3.09-.893-4.39-1.717-.628-.4-1.12-1.91-.857-2.614.84-2.267.536-3.094 1.333-5.368.42-1.182.518-3.413-.116-3.83-1.66-1.093-9.524-1.58-11.244 6.42-.758 3.506-5.442 14.75-4.618 16.87 1 2.577 1.59 4.327 3.81 5.214 5.02 2.027 4.486.71 5.825-4.616 1.25-4.968 3.883-5.633 8.45-4.806 2.015.364 2.713 1.393 2.19 3.332-4.7 17.466-9.5 34.916-14.06 52.418-2.596 9.95-4.777 20.006-7.207 30.002-1.664 6.823-3.69 13.568-5.078 20.446-.593 2.977-.382 15.216-7.385 14.7zm68.012-80.56c-4.167 17.013-7.882 34.132-12.285 51.084-4.55 17.52-9.66 34.898-14.578 52.33-3.002 10.66-6.028 21.31-9.177 31.928-1.264 4.234-2.89 8.37-4.37 12.533-.112.326-.43.576-.654.86-.174-.242-.457-.453-.517-.723-2.684-12.146-12.674-52.427-13.435-54.81-1.263-3.995-.37-4.034-1.065-9.79-.183-1.476 1.047-14.25 1.38-15.682 3.256-14.22 6.504-28.444 10.006-42.6 1.453-5.86 8.326-29.73 9.854-35.934 2.313-9.355 4.47-18.752 6.967-28.065 4.24-15.83 8.807-31.572 13.025-47.405 3.297-12.347 6.362-24.758 9.364-37.17 1.188-4.912 3.062-13.635 4.025-18.59.094-.512.365-.98.554-1.475.147.487.4.963.445 1.456.805 8.14 2.92 18.783 4.277 26.83 1.122 6.667 2.52 15.553 4.085 22.166 2.424 10.285 4.494 20.903 7.195 31.106 1.43 5.38-6.188 27.545-7.878 34.423-2.275 9.21-4.964 18.32-7.22 27.533z"/><path d="M747.09 181.53c6.768-6.938 13.06-15.605 17.973-23.947 5.525-9.397 12.155-18.455 13.112-29.614.547-6.355.67-13.714-3.336-19.024-4.21-5.566-12.704-4.04-18.038-1.356-18.755 9.427-33.943 27.41-42.15 46.54-3.307 7.7-10.638 33.155 1.912 36.995 2.38.73 3.393-2.995 1.02-3.717-5.093-1.558-3.776-11.598-3.466-15.466.635-7.71 3.23-15.18 6.81-21.976 7.52-14.248 18.205-26.53 31.585-35.523 6.98-4.69 18.695-9.527 21.544 2.027 1.8 7.313.036 16.346-2.957 22.94-6.227 13.717-16.208 28.6-26.736 39.395-1.74 1.78.987 4.504 2.725 2.724M1297.89 171.792c7.49-.15 13.422-7.392 18.006-13.42 2.924-3.86 10.98-18.104 16.966-17.214.737.11.583.785.436 1.116-1.423 3.27-3.895 5.897-5.757 8.952-.53.863 1.276 2.08 1.998 1.567 3.89-2.776 8.87-4.974 11.51-6.186.934-.427 1.774.235 1.834 1.107.316 5.24-11.434 7.993-10.46 10.85 1.745 2.613 9.666-2.905 13.585-1.22.963.384.157 1.235-1.64 2.465-4.794 2.86-8.76 4.87-14.125 6.374-3.053.854-14.4 3.025-16.532 4.06-.587.282-1.53 1.452-1.038 1.497 1.474.148 8.416-.276 10.985-.682 5.475-.872 12.866-3.004 17.87-5.53 3.48-1.756 8.18-3.86 9.492-7.94 1.984-6.193-3.864-4.753-7.904-4.06 1.82-2.055 5.758-8.36 2.226-10.138-3.32-1.67-8.143.64-10.952 2.26.505-1.638 2.38-4.943.917-6.503-1.474-1.576-4.888-1.654-6.62-.412-4.925 3.533-13.507 16.052-14.93 18.042-1.708 2.385-3.826 4.776-5.952 6.785-3.472 3.265-5.728 4.092-9.864 6.588-.528.32-2.02 1.687-.05 1.642M1453.35 253.556c-1.627-7.66-11.557-10.12-18.19-10.63-8.853-.683-16.926 3.66-24.723 7.247-8.287 3.813-16.238 9.064-25.084 11.46-2.34.638-4.72 1.15-7.14 1.408-2.008.22-4.8-.387-6.66.473-.85.385-2.483 2.066-.648 2.066 1.95-.007 3.9-.05 5.85-.076 8.155-.124 15.23-3.52 22.684-7.178 3.907-1.916 24.44-10.97 26.374-11.482 8.384-2.222 22.197-2.378 23.06 7.175-.936 4.645-6.392 2.137-12.327 1.71-1.456-.102-9.247-1.485-10.974 1.99-.448.882 2.08 1.88 4.81 2.924 6.558 2.514 9.737 3.573 11.118 5.747-.658 1.297-12.154-.07-13.947-.095-1.934-.034-6.422-.446-6.392.306.037.753 3.39 2.263 6.45 4.07 1.393.824 12.32 7.497 8.573 10.597-3.243 2.682-11.217.535-14.595-1.31-4.275-2.332-9.088-4.533-13.687-6.127-7.486-2.583-18.787-4.116-26.93-1.06-.647.24-.677 1.695-.214 1.653 16.58-1.66 23.56 1.452 24.928 1.885 5.195 1.67 9.86 4.977 14.767 7.284 5.11 2.408 14.382 5.452 19.165.718 5.18-5.124-2.244-11.307-6.55-13.646 3.425-.262 11.766 2.727 13.77-1.567 2.213-4.733-11.645-9.602-14.824-10.87-1.326-.53 10.94 1.313 11.916 1.473 2.298.376 4.253.228 6.44-.6 2.83-1.057 3.643-2.46 2.984-5.544M1283.63 372.206c-6.95-1.87-14.24-1.497-21.238-2.857-6.152-1.192-12.008-4.012-17.766-6.373-1.377-.556-1.164 1.152-.33 1.774 1.446 1.075 2.902 1.893 4.46 2.657 3.002 1.46 6.42 2.342 9.61 3.296 6.658 1.984 13.465 2.7 20.33 3.722 3.63.542 6.59 1.417 9.716 3.383 1.88 1.18 3.796 4.47-.653 3.97-2.99-.53-4.81-.758-9.79-2.19-5.34-1.28-7.06-1.503-6.972-.44.087 1.07 3.29 3.794 5.986 6.308 2.75 2.553 5.37 5.28 6.287 8.898.578 2.378-2.397 1.756-3.494 1.398-6.733-2.192-12.466-7.707-17.5-12.07-2.465-2.133-3.058-.166-2.17 2.342 1.203 3.467 3.26 5.323 3.507 9.755-1.85 4.946-8.795-5.27-15.768-18.678-6.976-13.41-17.21-19.087-21.956-16.98-2.122 1.93 5.04 1.192 9.9 6.62 7.107 6.456 13.036 17.475 13.83 19.005.646 1.248 4.728 8.26 5.246 9.028 3.9 5.834 8.537 8.982 9.67 7.436.87-1.183 1.66-2.477 2.067-3.917.752-2.7-.493-5.14-1.426-7.61 5.08 3.29 11.09 10.596 17.748 10.166 3.426-.217 4.987-4.66 3.23-8.622-1.41-3.185-5.005-6.45-7.31-9.022 3.91.87 13.56 5.45 15.273-.752 1.555-5.674-6.2-9.1-10.49-10.248M1415.692 143.005c6.67-4.252 9.24-9.22 10.946-15.87 1.28-4.498.915-7.724 4.786-8.428 4.148-.758 3.802 5.404 1.88 8.67-.322.55-1.844 3.57-.92 4.167.316.208 1.88-.37 3.032-2.384 1.468-2.583 3.982-5.39 7.67-4.697 4.09.77 4.245 5.533 2.256 8.257-2.183 3.025-4.65 5.233-9.376 8.947-6.91 5.43-12.12 5.59-18.505 7.797-1.028.36-1.603 1.095-1.016 1.07 2.208-.093 11.217-1.392 15.645-3.707 5.34-2.8 14.46-9.208 17.27-14.74 1.56-3.072 1.535-6.942-.814-9.257-5.213-5.127-9.794 1.127-10.3-.48-.8-2.533-2.725-7.477-7.52-6.71-6.675 1.07-5.065 11.373-8.73 18.073-1.984 3.647-5.612 6.444-10.762 9.298-5.412 2.996-10.6 1.715-14.905 1.56-.506-.008-4.672.83-2.853 1.294 10.577 2.68 14.583 2.01 22.215-2.86M1231.246 261.08c-2.39.412-5.32.19-4.815 1.907.58 1.978 28.276 6.65 30.322 7.124.346.082.662.674.845 1.098 1.405 3.33-.394 3.705 1.61 6.372 2.01 2.674 4.042 7.064 7.18 3.58.616 8.09 6.572 10.235 11.72 10.193 2.992-.03 3.77-1.35 6.692-3.112 1.696-1.022 3.69 3.09 5.928 3.724 6.89 1.957 11.307-1.474 11.41-8.05.045-2.957 1.308-3.462 3.624-3.414.42.012.845.124 1.276.136 3.28.14 5.932-1.01 7.378-4.06 2.69-5.687 1.14-11.355-.523-16.897-.535-1.78-1.4-3.06.223-4.82.88-.955 1.104-2.693 1.24-4.115.85-8.887-3.138-16.717-12.385-19.093-.805-.207-1.82-.487-2.68-.337-2.707.46-4.617.767-7.04-2.03-4.586-5.274-12.774-5.376-18.332-1.15-.695.525-1.282 2.958-1.868 3-.596.033-1.763-2.49-3.484-2.773-7.156-1.163-11.58-.37-17.01 4.024-2.08 1.678-3.318 4.333-2.88 9.115.124 1.25-1.028.91-1.56 2.097-1.354 2.968-2.593 11.14.364 14.362-1.43.317-2.86.633-4.296.93-4.277.9-8.624 1.453-12.938 2.19zm43.32-4.968c1.35-.273 3.84-3.04 3.91-3.265.62-1.886-2.154-1.62-3.195-1.375-4.405 1.053-8.794 2.2-13.207 3.26-4.052.97-8.1 1.958-12.162 2.893.185-1.952.326-7.166.45-8.766.198-2.677 1.38-3.414 3.895-2.443.533.21 1.34.54 1.667.313 1.865-1.305 1.353-4.138-.722-5.124-.888-.418-2.28-1.368-2.202-1.91.186-1.395.704-3.32 1.738-3.92 2.467-1.43 5.252-2.482 8.032-3.167 1.808-.45 3.853-.062 5.775.086 3.25.24 1.998 2.86 2.25 4.568.428 2.862 3.26 1.81 3.418 1.434.602-1.48.867-3.106 1.195-4.69.875-4.22 5.065-4.867 7.114-4.635 2.05.228 4.406 1.14 6.045 2.027 1.41.763 3.077 1.648 2.19 4.092-.364 1.005-.945 2.842.848 3.72 1.79.878 2.38-.52 3.225-1.2 2.59-2.105 5.77-2.724 8.29-1.317 3.694 2.08 6.504 4.842 7.965 9.01 1.793 5.1.542 7.322-4.782 7.878-.673.07-1.843 1.098-1.77 1.528.173 1.186.76 3.177 1.413 3.27 4.72.694 6.175 3.9 6.705 7.93.394 3.052.44 6.327-2.398 8.152-2.698 1.744-5.763 1.56-8.573-.5-.562-.417-1.756-.246-2.53.03-.382.13-.64 1.128-.625 1.72.042 1.21.277 2.416.484 3.612.557 3.326-1.107 7.118-3.495 7.93-3.16 1.074-7.456-.71-9.153-3.572-.406-.67-1.78-1.438-2.31-1.21-.77.323-1.188 1.505-1.74 2.325-.423.635-.68 1.67-1.244 1.87-5.812 2.06-10.78-1.49-11.17-7.652-.06-.87-1.855-2.502-2.207-2.346-3.66 1.608-3.796-1.462-4.79-3.378-.158-.3-.164-.673-.233-1.016.346.003.722-.08 1.03.024 7.076 2.267 14.133 4.583 21.217 6.808.506.153 3.82 1.03 4.47-.58.647-1.606-6.208-3.642-8.112-4.237-6.275-1.948-11.915-3.665-16.834-6.212-.81-.418-1.567-.94-2.355-1.41.953-.007 1.903-.07 2.845-.013 5.222.32 10.432.665 15.65 1 .76.053 3.72-.65 3.32-2.245-.395-1.59-3.41-2.453-4.643-2.384-3.2.195-5.664.183-8.847.018-5.97-.316-19.27.63-25.228.054-.55-.054-1.08-.367-1.622-.565.53-.364 1.01-.954 1.592-1.074 6.828-1.435 22.578-3.96 29.42-5.348z"/></g></svg>